<?xml version="1.0" encoding="iso-8859-1"?>
<!-- Generator: Adobe Illustrator 19.0.0, SVG Export Plug-In . SVG Version: 6.00 Build 0)  -->
<svg version="1.1" id="Capa_1" xmlns="http://www.w3.org/2000/svg" xmlns:xlink="http://www.w3.org/1999/xlink" x="0px" y="0px"
	 viewBox="0 0 513 513" style="enable-background:new 0 0 512 512;" xml:space="preserve">
<path style="fill:#82CD64;" d="M72.285,90c-4.355,0-6.649-5.2-3.682-8.387C115.34,31.409,181.998,0,256,0
	s140.66,31.409,187.397,81.613C446.364,84.8,444.07,90,439.715,90H72.285z M70.442,420c-4.332,0-6.633,5.15-3.716,8.352
	C113.546,479.742,181.002,512,256,512s142.454-32.258,189.274-83.648c2.917-3.202,0.616-8.352-3.716-8.352H70.442z"/>
<path style="fill:#64A54B;" d="M439.438,434.536c-10.314,10.6-21.539,20.308-33.551,28.999L72.913,434.902
	c-0.186-0.19-0.371-0.38-0.556-0.571C49.022,410.305,66.242,370,99.734,370h312.163C445.489,370,462.864,410.46,439.438,434.536z"/>
<path style="fill:#F5F0EB;" d="M512,119v1v150h-0.39c-3.352,62.149-28.868,118.401-68.788,161H69.177C26.28,385.223,0,323.685,0,256
	S26.28,126.777,69.177,81h373.646H473c21.204,0,38.443,16.925,38.975,38H512z"/>
<g>
	<path style="fill:#DCD2CD;" d="M512,119v1c0-0.335-0.017-0.667-0.025-1H512z M473,159h-56.844c-3.174,0-5.545,2.919-4.894,6.025
		l50.871,242.755c28.737-38.96,46.703-86.345,49.477-137.78H512V120C512,141.539,494.539,159,473,159z"/>
	<path style="fill:#DCD2CD;" d="M270,215c0,30.376-24.624,55-55,55s-55-24.624-55-55s24.624-55,55-55S270,184.624,270,215z"/>
	<path style="fill:#DCD2CD;" d="M132,390h216c1.105,0,2,0.895,2,2v6c0,1.105-0.895,2-2,2H132c-1.105,0-2-0.895-2-2v-6
		C130,390.895,130.895,390,132,390z M440,122v6c0,1.105,0.895,2,2,2h16c1.105,0,2-0.895,2-2v-6c0-1.105-0.895-2-2-2h-16
		C440.895,120,440,120.895,440,122z M372,400h16c1.105,0,2-0.895,2-2v-6c0-1.105-0.895-2-2-2h-16c-1.105,0-2,0.895-2,2v6
		C370,399.105,370.895,400,372,400z M320,120h68c1.105,0,2,0.895,2,2v6c0,1.105-0.895,2-2,2h-68v40v130h68c1.105,0,2,0.895,2,2v6
		c0,1.105-0.895,2-2,2h-68v68c0,1.105-0.895,2-2,2h-6c-1.105,0-2-0.895-2-2v-68H180l0,0h-48c-1.105,0-2-0.895-2-2v-6
		c0-1.105,0.895-2,2-2h48l0,0c71.797,0,130-58.203,130-130v-40H132c-1.105,0-2-0.895-2-2v-6c0-1.105,0.895-2,2-2h178H320z
		 M310,222.042c-14.208,35.459-42.499,63.75-77.958,77.958H310V222.042z"/>
</g>
<path style="fill:#B4AAAA;" d="M388,220H222c-1.105,0-2,0.895-2,2v156c0,1.105-0.895,2-2,2h-6c-1.105,0-2-0.895-2-2V222
	c0-1.105-0.895-2-2-2h-76c-1.105,0-2-0.895-2-2v-6c0-1.105,0.895-2,2-2h76c1.105,0,2-0.895,2-2v-86c0-1.105,0.895-2,2-2h6
	c1.105,0,2,0.895,2,2v86c0,1.105,0.895,2,2,2h166c1.105,0,2,0.895,2,2v6C390,219.105,389.105,220,388,220z"/>
<path style="fill:#FFAF37;" d="M132,0c2.761,0,5,2.239,5,5v24.302V260v222.698c-26.387-13.88-50.059-32.221-70-54.037V260V83.339V5
	c0-2.761,2.239-5,5-5H132z"/>
<path style="fill:#FF9B32;" d="M137,5v24.302V260v222.698c-9.359-4.923-18.369-10.418-27-16.42V273.137V0h22
	C134.761,0,137,2.239,137,5z"/>
<path style="fill:#B9783D;" d="M122,60h15v10h-15c-1.104,0-2-0.896-2-2v-6C120,60.896,120.896,60,122,60z M120,92v6
	c0,1.104,0.896,2,2,2h15V90h-15C120.896,90,120,90.896,120,92z M120,152v6c0,1.104,0.896,2,2,2h15v-10h-15
	C120.896,150,120,150.896,120,152z M120,182v6c0,1.104,0.896,2,2,2h15v-10h-15C120.896,180,120,180.896,120,182z M102,30
	c-1.104,0-2,0.896-2,2v6c0,1.104,0.896,2,2,2h35V30H102z M100,122v6c0,1.104,0.896,2,2,2h35v-10h-35
	C100.896,120,100,120.896,100,122z M100,212v6c0,1.104,0.896,2,2,2h35v-10h-35C100.896,210,100,210.896,100,212z M120,242v6
	c0,1.104,0.896,2,2,2h15v-10h-15C120.896,240,120,240.896,120,242z M120,272v6c0,1.104,0.896,2,2,2h15v-10h-15
	C120.896,270,120,270.896,120,272z M120,332v6c0,1.104,0.896,2,2,2h15v-10h-15C120.896,330,120,330.896,120,332z M120,362v6
	c0,1.104,0.896,2,2,2h15v-10h-15C120.896,360,120,360.896,120,362z M100,302v6c0,1.104,0.896,2,2,2h35v-10h-35
	C100.896,300,100,300.896,100,302z M120,422v6c0,1.104,0.896,2,2,2h15v-10h-15C120.896,420,120,420.896,120,422z M100,392v6
	c0,1.104,0.896,2,2,2h35v-10h-35C100.896,390,100,390.896,100,392z"/>
<path style="fill:#736E6E;" d="M230,215c0,8.284-6.716,15-15,15s-15-6.716-15-15s6.716-15,15-15S230,206.716,230,215z"/>
<g>
</g>
<g>
</g>
<g>
</g>
<g>
</g>
<g>
</g>
<g>
</g>
<g>
</g>
<g>
</g>
<g>
</g>
<g>
</g>
<g>
</g>
<g>
</g>
<g>
</g>
<g>
</g>
<g>
</g>
</svg>
