<svg xmlns="http://www.w3.org/2000/svg" viewBox="0 0 512 512"><path d="M82.265 68C127.907 25.8 188.936 0 256 0s128.093 25.8 173.735 68H82.265z" fill="#ffc364"/><path d="M512 256c0 141.385-114.615 256-256 256S0 397.385 0 256c0-10.414.64-20.677 1.849-30.766H0V70c0-5.523 4.477-10 10-10h410.664C476.502 106.96 512 177.329 512 256z" fill="#6cd0f5"/><path d="M0 125v-25h48V85a5 5 0 015-5h82a5 5 0 015 5v15h318.971a256.785 256.785 0 0116.994 25H0z" fill="#46a5cd"/><path d="M474.693 151.667H10c-5.523 0-10-4.477-10-10V110h466.277a256.047 256.047 0 0116.851 27.841c3.282 6.294-1.337 13.826-8.435 13.826z" fill="#46738c"/><path d="M129 92v6a2 2 0 01-2 2H61a2 2 0 01-2-2v-6a2 2 0 012-2h66a2 2 0 012 2zm319 28h-36a2 2 0 00-2 2v6a2 2 0 002 2h36a2 2 0 002-2v-6a2 2 0 00-2-2z" fill="#3c5064"/><path d="M30 128v-6a2 2 0 012-2h356a2 2 0 012 2v6a2 2 0 01-2 2H32a2 2 0 01-2-2zm454.238 12H0v110h.074A260.17 260.17 0 000 256c0 141.385 114.615 256 256 256s256-114.615 256-256c0-41.763-10.019-81.177-27.762-116z" fill="#e6faff"/><path d="M281 510.783A259.165 259.165 0 01256 512C114.615 512 0 397.385 0 256c0-2.006.028-4.005.074-6H0V140h50v110h.074a260.17 260.17 0 00-.074 6c0 132.949 101.349 242.215 231 254.783z" fill="#cdf5ff"/><path d="M32 170h465.178C506.764 196.881 512 225.827 512 256c0 24.131-3.344 47.48-9.585 69.615H32a2 2 0 01-2-2V172a2 2 0 012-2z" fill="#ffc364"/><path d="M507.856 210H168c0 11.046-8.954 20-20 20s-20-8.954-20-20H98v20c0 11.046-8.954 20-20 20s-20-8.954-20-20v-20H30v-38a2 2 0 012-2h465.178a254.563 254.563 0 0110.678 40z" fill="#ff9b32"/><path d="M290 342v6a2 2 0 01-2 2H152a2 2 0 01-2-2v-6a2 2 0 012-2h136a2 2 0 012 2zm-112 18h-26a2 2 0 00-2 2v6a2 2 0 002 2h26a2 2 0 002-2v-6a2 2 0 00-2-2z" fill="#46a5cd"/><path d="M290 402v6a2 2 0 01-2 2H152a2 2 0 01-2-2v-6a2 2 0 012-2h136a2 2 0 012 2zm-52 18h-86a2 2 0 00-2 2v6a2 2 0 002 2h86a2 2 0 002-2v-6a2 2 0 00-2-2zm0 20h-86a2 2 0 00-2 2v6a2 2 0 002 2h86a2 2 0 002-2v-6a2 2 0 00-2-2z" fill="#87dcfa"/><path d="M200 505.84V204.206c0-8.273 6.707-14.98 14.98-14.98h232.189c8.273 0 14.98 6.707 14.98 14.98v203.583C415.533 470.992 340.56 512 256 512a256.886 256.886 0 01-56-6.16z" fill="#46738c"/><path d="M217.494 509.117V242.004c0-2.115 1.64-3.83 3.664-3.83h219.833c2.024 0 3.664 1.715 3.664 3.83v187.028C397.859 480.026 330.667 512 256 512a257.97 257.97 0 01-38.506-2.883z" fill="#cdf5ff"/><path d="M368.524 215.325a7.49 7.49 0 01-7.49 7.49h-59.92a7.49 7.49 0 010-14.98h59.92a7.49 7.49 0 017.49 7.49z" fill="#3c5064"/><path d="M444.655 242.004V380H217.494V242.004c0-2.115 1.64-3.83 3.664-3.83h219.833c2.023 0 3.664 1.715 3.664 3.83z" fill="#ffc364"/><path d="M130 330c0 22.091-17.909 40-40 40s-40-17.909-40-40 17.909-40 40-40 40 17.909 40 40zm201.074 10c-22.091 0-40 17.909-40 40s17.909 40 40 40 40-17.909 40-40-17.908-40-40-40z" fill="#e6faff"/><path d="M444.655 242.004V270h-24.403v50c0 11.046-8.954 20-20 20s-20-8.954-20-20v-50h-30c0 11.046-8.954 20-20 20s-20-8.954-20-20h-30v20c0 11.046-8.954 20-20 20s-20-8.954-20-20v-20h-22.758v-27.996c0-2.115 1.64-3.83 3.664-3.83h219.833c2.023 0 3.664 1.715 3.664 3.83zM331.074 350c-16.569 0-30 13.431-30 30s13.431 30 30 30 30-13.431 30-30-13.431-30-30-30zM90 300c-16.569 0-30 13.431-30 30s13.431 30 30 30 30-13.431 30-30-13.431-30-30-30z" fill="#ff9b32"/><path d="M376.074 442v6a2 2 0 01-2 2h-86a2 2 0 01-2-2v-6a2 2 0 012-2h86a2 2 0 012 2zm-22 18h-46a2 2 0 00-2 2v6a2 2 0 002 2h46a2 2 0 002-2v-6a2 2 0 00-2-2z" fill="#46a5cd"/></svg>