<svg version="1.1" id="Слой_1" xmlns="http://www.w3.org/2000/svg" x="0" y="0" viewBox="0 0 513 513" xml:space="preserve"><style>.st2{fill:#201600}</style><path d="M-112-172.8h844.4v676.7H-112v-676.7z" fill="none"/><path d="M478.5 259.8c0-10.6-5.1-20.2-13.3-25.1l-32.4-18.9 32.4-18.9c8.3-4.7 13.3-14.3 13.3-25.1 0-10.6-5.1-20.2-13.3-25.1l-183-105.9c-13.3-7.7-29.3-7.7-42.7 0L56.6 147c-8.3 4.7-13.3 14.3-13.3 25.1 0 10.6 5.1 20.2 13.3 25.1L88.9 216l-32.4 18.9c-8.3 4.7-13.3 14.3-13.3 25.1 0 10.6 5.1 20.2 13.3 25.1L88.9 304l-32.4 18.9c-8.3 4.7-13.3 14.3-13.3 25.1 0 10.6 5.1 20.2 13.3 25.1l182.9 105.7c6.7 3.9 14.1 5.7 21.3 5.7 7.3 0 14.7-2 21.3-5.7l182.9-106.1c8.3-4.7 13.3-14.3 13.3-25.1 0-10.6-5.1-20.2-13.3-25.1l-32.4-18.9 32.4-18.9c8.5-4.7 13.6-14.3 13.6-24.9z" fill="#ffa501"/><path class="st2" d="M65.6 176.3c-2-1.2-2.3-3.2-2.3-4.2s.3-3.2 2.3-4.2L248.5 61.8c3.9-2.2 8.1-3.4 12.3-3.4s8.6 1.2 12.3 3.4L456 167.9c2 1.2 2.3 3.2 2.3 4.2s-.3 3.2-2.3 4.2L273.2 282.4c-7.7 4.5-17 4.5-24.8 0L65.6 176.3zm390.5 167c2 1.2 2.3 3.2 2.3 4.2 0 1.2-.3 3.2-2.3 4.2L273.2 457.8c-7.7 4.5-17 4.5-24.8 0l-183-106.1c-2-1.2-2.3-3.2-2.3-4.4s.3-3.2 2.3-4.2l45.8-26.6 128.1 74.4c6.7 3.9 14.1 5.7 21.3 5.7 7.3 0 14.7-2 21.3-5.7L410 316.5l46.1 26.8z"/><path class="st2" d="M456.1 264L273.2 370.1c-7.7 4.5-17 4.5-24.8 0L65.4 264c-2-1.2-2.3-3.2-2.3-4.2 0-1.2.3-3.2 2.3-4.2l45.8-26.6 128.1 74.4c6.7 3.9 14.1 5.7 21.3 5.7 7.3 0 14.7-1.9 21.3-5.9L410 228.8l45.8 26.6c2 1.2 2.3 3.2 2.3 4.2.4 1.4.1 3.4-2 4.4z"/></svg>