<?xml version="1.0" encoding="utf-8"?>
<!-- Generator: Adobe Illustrator 22.0.1, SVG Export Plug-In . SVG Version: 6.00 Build 0)  -->
<svg version="1.1" id="Слой_1" xmlns="http://www.w3.org/2000/svg" xmlns:xlink="http://www.w3.org/1999/xlink" x="0px" y="0px"
	 viewBox="0 0 513 513" style="enable-background:new 0 0 512 512;" xml:space="preserve">
<style type="text/css">
	.st0{fill:none;}
	.st1{fill:#FFA501;}
	.st2{fill:#201600;}
</style>
<path class="st0" d="M-112-172.8h844.4v676.7H-112V-172.8z"/>
<path class="st1" d="M478.5,259.8c0-10.6-5.1-20.2-13.3-25.1l-32.4-18.9l32.4-18.9c8.3-4.7,13.3-14.3,13.3-25.1
	c0-10.6-5.1-20.2-13.3-25.1L282.2,40.8c-13.3-7.7-29.3-7.7-42.7,0L56.6,147c-8.3,4.7-13.3,14.3-13.3,25.1c0,10.6,5.1,20.2,13.3,25.1
	L88.9,216l-32.4,18.9c-8.3,4.7-13.3,14.3-13.3,25.1c0,10.6,5.1,20.2,13.3,25.1l32.4,18.9l-32.4,18.9c-8.3,4.7-13.3,14.3-13.3,25.1
	c0,10.6,5.1,20.2,13.3,25.1l182.9,105.7c6.7,3.9,14.1,5.7,21.3,5.7c7.3,0,14.7-2,21.3-5.7l182.9-106.1c8.3-4.7,13.3-14.3,13.3-25.1
	c0-10.6-5.1-20.2-13.3-25.1l-32.4-18.9l32.4-18.9C473.4,280,478.5,270.4,478.5,259.8L478.5,259.8z"/>
<path class="st2" d="M65.6,176.3c-2-1.2-2.3-3.2-2.3-4.2c0-1,0.3-3.2,2.3-4.2L248.5,61.8c3.9-2.2,8.1-3.4,12.3-3.4s8.6,1.2,12.3,3.4
	l182.9,106.1c2,1.2,2.3,3.2,2.3,4.2c0,1-0.3,3.2-2.3,4.2L273.2,282.4c-7.7,4.5-17,4.5-24.8,0L65.6,176.3z"/>
<path class="st2" d="M456.1,343.3c2,1.2,2.3,3.2,2.3,4.2c0,1.2-0.3,3.2-2.3,4.2L273.2,457.8c-7.7,4.5-17,4.5-24.8,0L65.4,351.7
	c-2-1.2-2.3-3.2-2.3-4.4s0.3-3.2,2.3-4.2l45.8-26.6l128.1,74.4c6.7,3.9,14.1,5.7,21.3,5.7c7.3,0,14.7-2,21.3-5.7l128.1-74.4
	L456.1,343.3L456.1,343.3z"/>
<path class="st2" d="M456.1,264L273.2,370.1c-7.7,4.5-17,4.5-24.8,0L65.4,264c-2-1.2-2.3-3.2-2.3-4.2c0-1.2,0.3-3.2,2.3-4.2
	l45.8-26.6l128.1,74.4c6.7,3.9,14.1,5.7,21.3,5.7c7.3,0,14.7-1.9,21.3-5.9l128.1-74.4l45.8,26.6c2,1.2,2.3,3.2,2.3,4.2
	C458.5,261,458.2,263,456.1,264L456.1,264z"/>
</svg>
