<?xml version="1.0" encoding="UTF-8"?>
<svg xmlns="http://www.w3.org/2000/svg" xmlns:xlink="http://www.w3.org/1999/xlink" width="50px" height="50px" viewBox="0 0 50 50" version="1.1">
<g id="surface1">
<path style=" stroke:none;fill-rule:nonzero;fill:rgb(18.039216%,39.215686%,58.823529%);fill-opacity:1;" d="M 0.78125 25 C 0.78125 11.621094 11.621094 0.78125 25 0.78125 C 38.378906 0.78125 49.21875 11.621094 49.21875 25 C 49.21875 38.378906 38.378906 49.21875 25 49.21875 C 11.621094 49.21875 0.78125 38.378906 0.78125 25 Z M 23.339844 13.875 L 10.109375 27.109375 C 9.1875 28.027344 9.1875 29.511719 10.109375 30.421875 L 11.765625 32.078125 C 12.6875 33 14.171875 33 15.078125 32.078125 L 25 22.15625 L 34.921875 32.078125 C 35.839844 33 37.324219 33 38.234375 32.078125 L 39.890625 30.421875 C 40.8125 29.503906 40.8125 28.015625 39.890625 27.109375 L 26.660156 13.875 C 25.742188 12.957031 24.257812 12.957031 23.339844 13.875 Z M 23.339844 13.875 "/>
</g>
</svg>
