<svg xmlns="http://www.w3.org/2000/svg" xmlns:xlink="http://www.w3.org/1999/xlink" viewBox="0 0 353.9 426.2"><style>.st1{fill:#242b3d}.st2{fill:#3e4e75}.st3{fill:#5d99fa}.st4{fill:#b875d0}.st5{fill:#f56eab}.st6{opacity:.2;fill:#fff}.st7{fill:#7dd075}.st8{fill:#6ef5c8}.st9{fill:#5e93ff}.st10{fill:#fff}.st11{fill:#8c5e4c}.st14{fill:#eda468}.st15{fill:#b57962}.st16{opacity:.3;fill:#fff}.st17{fill:#c8c8e5}.st18{fill:#acacd1}.st20{fill:#a9d1b5}.st22{fill:none;stroke:#fff;stroke-width:.5;stroke-linejoin:round;stroke-miterlimit:10}.st27{enable-background:new}.st28{fill:#614134}.st29{fill:#9c6854}.st30{fill:#fcbb86}.st31{opacity:.4;fill:#fffbf7}.st123{fill:#c27d5d}.st124{fill:#5274ab}.st126{fill:#2d3041}.st127{fill:#7f5545}.st128{fill:#976552}.st129{fill:#614135}.st133{fill-rule:evenodd;clip-rule:evenodd;fill:#fdddc8}.st145{fill:#2c3340}.st148{fill:#697a9c}.st162{opacity:.4;fill:#fff}.st176{fill:#8194bc}.st179{fill:#e8356c}</style><g id="OBJECTS"><path class="st1" d="M194.5 64.1c1.2.7 2 2.4 1.8 3.8l-9.5 70c-.2 1.4-1.3 2.1-2.5 1.4L77 77.4c-1.2-.7-2-2.4-1.8-3.8l9.5-70c.2-1.4 1.3-2.1 2.5-1.4l4.4 2.5 1.2-3.5c.4-1.2 1.7-1.5 2.8-.8l31.1 18c1.2.7 2.2 2.3 2.2 3.8l.1 4.2 65.5 37.7z"/><path class="st2" d="M154.4 89.1c.9 3.9 3.2 7.4 6.3 9.1 3 1.7 5.9 1.1 7.8-1l4 5.5c-3.1 3.7-7.9 4.6-12.8 1.8-5-2.8-8.8-8.8-10.3-15.2l5-.2z"/><path class="st3" d="M165.3 71.8c5.6 3.4 9.7 10.7 10.4 18l-5.2-.9c-.5-4.4-2.9-8.7-6.3-10.8l1.1-6.3z"/><path class="st4" d="M175.8 90.8c.1 1.6 0 3.2-.2 4.7-.4 2.7-1.4 4.9-2.6 6.7l-4-5.5c.7-1 1.3-2.4 1.5-4 .1-.9.2-1.8.1-2.7l5.2.8z"/><path class="st5" d="M164.6 71.4l-1 6.4c-4.4-2.2-8.6.3-9.4 5.8-.2 1.5-.2 3.1.1 4.6l-5 .3c-.5-2.6-.6-5.3-.2-7.9 1.3-9 8.3-13 15.5-9.2z"/><path class="st3" d="M139.6 58.7l.2.2v.2l-9 3.6-3.3.2h-.3l-5.1.3-7.6-7-7.6 3.6-.2.1-1.3.6-2.2-.3-.4-.1-5.8-1-.1-.1-7.1-11.1v-.3l.1.1L97 58.8l6 1h.4l1.9.3 1.2-.5.3-.2 7.6-3.6h.1l7.6 7.1 4.8-.4h.3l3.5-.2z"/><path class="st5" d="M120.7 74.5l6.8 5.7.4.8-7.3-6.2-8.6 1.6-.2-.2-2.3-7.1.3-.1 2.2 7 8.6-1.6z"/><path class="st4" d="M123 56.4l4.2 6.1h-.3l-4-5.8-8.3-1.9-8.6.6-.1-.1-6.8-13.5-8.3-.9-.2-.2.1-.2 8.4 1 .2.1L106 55l8.6-.5 8.3 1.8z"/><path class="st5" d="M99.5 63.9l3.3-3.8h.4l-3.4 4.1zm6.4-7.2l.9 2.7-.3.2-.7-2.5-2.4 2.7h-.4l2.7-3.2h.1zm1 3.1l2.8 8.9h-.3l-2.7-8.8zm-11.2 8.6l3.7-4.3.2.3-3.7 4.4-.2-.1-7.3-10v-.3h.2z"/><path class="st4" d="M139.2 62.1l.2.1v.2l-9.2 4.8-.1-.1-2.9-4.2h.3l2.7 3.9z"/><path class="st2" d="M121.3 68.7l.2.1 6.6 11.9.3.6.1.1 8 2.9.1.3-.1.1-8.2-3-.1-.1-.3-.6-.4-.8-6.2-11.1-8.3-.7-3.2.6-.3.1-5.3 1h-.1l-4.5-5.7-.2-.3-2.7-3.3-7.6-7-.1-.3h.2l7.6 7 2.7 3.4.3.3 4.4 5.6 5.2-1.1h.3l3.2-.7z"/><path class="st5" d="M136.8 81.9l.1.2-.1.2-8.3-.9-.1-.1-.3-.6.3.3z"/><path class="st2" d="M91.5 28.4l-5.1 40.1 48.7 27.4-.1.3-48.9-27.5 5.1-40.4zm33.4-5.8c.1.1.2.1.3 0l.4-.2.3.6c.1.2.2.3.3.4.1.1.2.1.4 0s.3-.5.1-.8l-.3-.6.4-.2c.2-.1.3-.5.1-.8-.1-.2-.2-.3-.3-.4-.1-.1-.2-.1-.4 0l-.4.2-.3-.6c-.1-.2-.2-.3-.3-.4-.1-.1-.2-.1-.4 0s-.3.5-.1.8l.3.6-.4.2c-.2.1-.3.5-.1.8.2.2.3.4.4.4zm53.6 38.2L90.6 10c-1.2-.7-2.3-.1-2.5 1.4l-.5 3.8c-.2 1.4.6 3.2 1.8 3.8l87.9 50.8c1.2.7 2.3.1 2.5-1.4l.5-3.8c.2-1.4-.6-3.2-1.8-3.8zm12.5 8.5l-6.1-3.5c-.3-.2-.6 0-.7.4-.1.4.2.8.5 1l6.1 3.5c.3.2.6 0 .7-.4 0-.3-.2-.8-.5-1zm-.7 5.2l-6.1-3.5c-.3-.2-.6 0-.7.4-.1.4.2.8.5 1l6.1 3.5c.3.2.6 0 .7-.4 0-.4-.2-.8-.5-1zm.4-2.6l-6.1-3.5c-.3-.2-.6 0-.7.4-.1.4.2.8.5 1l6.1 3.5c.3.2.6 0 .7-.4 0-.4-.2-.8-.5-1z"/><path class="st6" d="M129 26.3l-.1-4.2c0-1.4-1-3.1-2.2-3.8L95.6.3c-1.2-.7-2.4-.3-2.8.8l-1.2 3.5-4.4-2.5c-1.2-.7-2.3-.1-2.5 1.4l-9.5 70c-.2 1.5.6 3.2 1.8 3.9l29.3 16.9 65.1-43.6L129 26.3z"/><path class="st1" d="M314 132.5c1.2.7 2 2.4 1.8 3.8l-9.5 70c-.2 1.4-1.3 2.1-2.5 1.4l-107.3-61.9c-1.2-.7-2-2.4-1.8-3.8l9.5-70c.2-1.4 1.3-2.1 2.5-1.4l4.4 2.5 1.2-3.5c.4-1.2 1.7-1.5 2.8-.8l31.1 18c1.2.7 2.2 2.3 2.2 3.8l.1 4.2 65.5 37.7z"/><path class="st2" d="M217.9 100.8c2.3 1.4 4.3 3.9 5.4 6.8l-1.6.6c-.9-2.2-2.3-4.1-4.1-5.2l.3-2.2z"/><path class="st5" d="M217.7 100.7l-.3 2.2c-3.3-1.8-6.3-.1-6.9 4-.6 4.1 1.7 8.9 5 10.8 3.3 1.9 6.4.2 7-3.9.2-1.7 0-3.6-.7-5.3l1.6-.6c.8 2.2 1.2 4.7.9 6.9-.7 5.3-4.8 7.6-9.1 5.1s-7.2-8.8-6.5-14.1c.7-5.2 4.7-7.5 9-5.1z"/><path class="st7" d="M214.1 127.1l-.3 2.2c-3.3-1.8-6.3-.1-6.9 4-.6 4.1 1.7 8.9 5 10.8 1.4.8 2.8 1 4 .5l.9 2.4c-1.5.6-3.4.4-5.2-.7-4.3-2.5-7.2-8.8-6.5-14.1.7-5.2 4.7-7.5 9-5.1z"/><path class="st2" d="M214.3 127.2c4.3 2.5 7.1 8.8 6.4 14-.4 2.9-1.8 4.9-3.7 5.7l-.9-2.4c1.4-.6 2.5-2.1 2.8-4.4.5-4-1.6-8.8-4.9-10.8l.3-2.1zm19.3 11.2c3 1.8 5.3 5.5 6.2 9.3H238c-.6-2.9-2.4-5.7-4.7-7.1l.3-2.2z"/><path class="st4" d="M233.4 138.2l-.3 2.2c-3.3-1.8-6.3-.1-6.9 4-.6 4.1 1.7 8.9 5 10.8 3.3 1.9 6.5.2 7-3.9.1-1.1.1-2.2-.1-3.3h1.8c.3 1.5.4 3 .2 4.4-.7 5.3-4.8 7.6-9.1 5.1s-7.2-8.8-6.5-14.1c.6-5.3 4.6-7.6 8.9-5.2z"/><path class="st3" d="M237 111.8l-.3 2.2c-3.3-1.8-6.3-.1-6.9 4-.6 4.1 1.7 8.9 5 10.8 2.4 1.4 4.7.9 6-1.1l1.5 1.9c-1.7 2.5-4.7 3.2-7.8 1.4-4.3-2.5-7.2-8.8-6.5-14.1.7-5.2 4.7-7.5 9-5.1z"/><path class="st2" d="M237.2 112c4.2 2.5 7.1 8.8 6.4 14-.2 1.4-.6 2.5-1.2 3.5l-1.5-1.9c.4-.7.7-1.6.9-2.6.5-4-1.6-8.8-4.9-10.8l.3-2.2z"/><path class="st5" d="M298.8 146.4l-.3 1.4 8 4.6.2-1.4zm-2.3 15.3l-.2 1.4 8 4.6.2-1.4zm-12.5 8.7l-.2 1.4 8 4.6.2-1.4z"/><path class="st8" d="M263.6 126.1l-.2 1.4 7.9 4.6.2-1.4z"/><path class="st9" d="M257.1 122.4l-.2 1.4 4.8 2.7.2-1.4z"/><path class="st10" d="M268.2 139.8l-.2 1.4 26.7 15.4.2-1.4z"/><path class="st8" d="M272.6 136.8l-.2 1.4 7.9 4.6.2-1.4z"/><path class="st10" d="M282.2 142.4l-.2 1.4 13.4 7.8.2-1.5zm-9-10.7l-.2 1.4 23.2 13.4.2-1.4z"/><path class="st8" d="M258.5 134.2l-.2 1.4 8 4.6.2-1.4z"/><path class="st9" d="M266.1 133.1l-.2 1.4 4.8 2.8.2-1.4zm-14-2.6l-.2 1.4 4.7 2.8.2-1.5z"/><path class="st8" d="M259.8 151.5l-.2 1.4 8 4.6.2-1.4zm6.7-1.6l-.2 1.4 8 4.6.2-1.4zm6.4-1.9l-.2 1.4 8 4.6.2-1.4z"/><path class="st9" d="M266.5 144.3l-.2 1.4 4.7 2.8.2-1.4z"/><path class="st10" d="M282.6 153.6l-.2 1.4 11.6 6.7.2-1.4z"/><path class="st9" d="M260.1 146.1l-.2 1.4 4.7 2.8.2-1.4z"/><path class="st10" d="M276.2 155.4l-.2 1.4 17.2 10 .2-1.4zm-6.7 1.7l-.2 1.4 23.2 13.4.2-1.5z"/><path class="st8" d="M273.4 164.3l-.3 1.4 8 4.6.2-1.4z"/><path class="st9" d="M253.4 147.8l-.2 1.4 4.8 2.7.2-1.4z"/><path class="st10" d="M286.7 179.1l-.3 1.4 4.4 2.5.2-1.4zm-.8 4.9l-.2 1.4 4.4 2.5.2-1.4z"/><path class="st2" d="M244.5 91c.1.1.2.1.3 0l.4-.2.3.6c.1.2.2.3.3.4.1.1.2.1.4 0s.3-.5.1-.8l-.3-.6.4-.2c.2-.1.3-.5.1-.8-.1-.2-.2-.3-.3-.4-.1-.1-.2-.1-.4 0l-.4.2-.3-.6c-.1-.2-.2-.3-.3-.4-.1-.1-.2-.1-.4 0s-.3.5-.1.8l.3.6-.4.2c-.2.1-.3.5-.1.8.1.2.2.3.4.4zm53.6 38.1l-87.9-50.7c-1.2-.7-2.3-.1-2.5 1.4l-.5 3.8c-.2 1.4.6 3.2 1.8 3.8l87.9 50.8c1.2.7 2.3.1 2.5-1.4l.5-3.8c.1-1.5-.7-3.2-1.8-3.9zm12.5 8.5l-6.1-3.5c-.3-.2-.6 0-.7.4-.1.4.2.8.5 1l6.1 3.5c.3.2.6 0 .7-.4 0-.3-.2-.8-.5-1zm-.7 5.2l-6.1-3.5c-.3-.2-.6 0-.7.4-.1.4.2.8.5 1l6.1 3.5c.3.2.6 0 .7-.4 0-.3-.2-.8-.5-1zm.3-2.6l-6.1-3.5c-.3-.2-.6 0-.7.4-.1.4.2.8.5 1l6.1 3.5c.3.2.6 0 .7-.4 0-.3-.2-.8-.5-1z"/><path class="st6" d="M248.6 94.6l-.1-4.2c0-1.4-1-3.1-2.2-3.8l-31.1-18c-1.2-.7-2.4-.3-2.8.8l-1.2 3.5-4.4-2.5c-1.2-.7-2.3-.1-2.5 1.4l-9.5 70c-.2 1.4.6 3.2 1.8 3.8l29.3 16.9 65.1-43.6-42.4-24.3z"/><path class="st11" d="M88.9 180.7L66 194l7.1 46.6 15.8-9.2 15.9 9.2 7.1-46.6z"/><linearGradient id="SVGID_1_" gradientUnits="userSpaceOnUse" x1="59.368" y1="245.455" x2="89.868" y2="193.623"><stop offset="0" stop-color="#f7f7ff"/><stop offset="1" stop-color="#bebee0"/></linearGradient><path fill="url(#SVGID_1_)" d="M89.1 213.8l-.1 40.4-23.6-13.6L54.8 194z"/><linearGradient id="SVGID_2_" gradientUnits="userSpaceOnUse" x1="87.22" y1="258.127" x2="123.053" y2="176.293"><stop offset="0" stop-color="#f7f7ff"/><stop offset="1" stop-color="#bebee0"/></linearGradient><path fill="url(#SVGID_2_)" d="M123.1 194l-10.6 46.6L89 254.2l.1-40.4z"/><path class="st14" d="M64.2 235.1l1.2 5.5L89 254.2v-4.7z"/><path class="st15" d="M113.7 235.2L89 249.5v4.7l23.5-13.6z"/><path class="st16" d="M89.1 214.7l33.7-19.7.3-1-34 19.8L54.8 194l.3 1z"/><path class="st17" d="M88.8 174.3l34.2 19.8-34 19.8L54.8 194l34-19.7zm.2 33l22.9-13.3-23-13.3L66 194l23 13.3"/><path class="st18" d="M75.6 206h1c2.7-.3 4.1-1.5 5.4-2.7L66 194l13.7-8c-2.3-.5-4.2.3-7-2.1-.1-.1-.2-.1-.2-.2L54.8 194l20.8 12z"/><linearGradient id="SVGID_3_" gradientUnits="userSpaceOnUse" x1="350.344" y1="703.688" x2="364.072" y2="649.294" gradientTransform="scale(-1 1) rotate(-12.35 -2301.676 2445.523)"><stop offset="0" stop-color="#346d4d"/><stop offset="1" stop-color="#8ac45e"/></linearGradient><path d="M67 130.9c.9-6-1.3-6 .6-12 2.2-6 5.1-8.3 7.6-14 4.1 4.7 7.6 6 11.5 11 3.6 5.2 1.6 5.9 4.3 11.3 2.4 5.5 5 5 7.1 10.8 1.9 5.9-1.2 6.3-.3 12.2.6 5.9 4.2 5.8 4.5 12 0 6.2-4 6.1-4.8 12-1.2 5.9 3.2 6.4 1.6 12.5-1.9 6-6.6 5.2-9.3 10.8-4.3-4.5-8.5-2.3-12.2-7.5-3.4-5.3.6-7.1-2.3-12.4-2.7-5.4-6.4-4.1-8.3-10-1.6-6 1.8-6.9.6-12.8-.9-5.9-4-5.4-4-11.5.2-6.2 2.8-6.4 3.4-12.4z" fill="url(#SVGID_3_)"/><path class="st20" d="M102.2 162.1c-.2-4.7-2.4-5.8-3.7-8.7-.2.6-.4 1.3-.8 2.1-2.2 4.8-5.1 3.7-7 8.8-1.7 5.2 1.6 6.2.7 11.4-.6 5.3-4.4 4.5-4.7 10-.1 4.8 3 5.9 4.3 9.6 2.7-3.3 6.3-3.5 7.9-8.6 1.6-6.1-2.8-6.6-1.6-12.5.9-6 4.9-5.9 4.9-12.1zm-35.9-28c2.2 2.9 1.3 4.1 3.9 7.9 2.8 4.5 4.9 3.7 7.5 8.5 2.3 4.9-.3 5.6 1.2 10.7 1.3 5.1 4.4 4.5 5.4 9.8.8 5.4-2.7 5.8-2.7 11.1-.3 5.3 3.6 5.2 2.9 10.7-.1.6-.2 1.1-.4 1.5-2.4-.8-4.7-1.3-6.8-4.3-3.4-5.3.6-7.1-2.3-12.4-2.7-5.4-6.4-4.1-8.3-10-1.6-6 1.8-6.9.6-12.8-.9-5.9-4-5.4-4-11.5.4-4.8 2-6.1 3-9.2z"/><defs><path id="SVGID_4_" d="M89.6 197.5c2.8-5.6 7.4-4.8 9.3-10.8 1.6-6.1-2.8-6.6-1.6-12.5.9-6 4.9-5.9 4.8-12-.3-6.2-3.9-6-4.5-12-.9-5.9 2.2-6.3.3-12.2-2.1-5.8-4.7-5.3-7.1-10.8-2.7-5.4-.6-6.1-4.3-11.3-3.9-5-7.4-6.4-11.5-11-2.5 5.7-5.4 8-7.6 14-1.9 6 .3 6.1-.6 12-.6 6-3.2 6.2-3.5 12.4 0 6.2 3.1 5.7 4 11.5 1.2 5.9-2.2 6.8-.6 12.8 1.9 5.9 5.6 4.6 8.3 10 2.9 5.3-1.1 7.1 2.3 12.4 3.7 5.2 7.9 3 12.3 7.5z"/></defs><clipPath id="SVGID_5_"><use xlink:href="#SVGID_4_" overflow="visible"/></clipPath><g opacity=".5" clip-path="url(#SVGID_5_)"><path class="st22" d="M74.7 101.8L90.1 201m-27.5-23.5l26.1 14.2 20.5-21.5"/><path class="st22" d="M60.2 162.1l26.1 14.3 20.5-21.5"/><path class="st22" d="M57.8 146.8l26.1 14.3 20.5-21.5"/><path class="st22" d="M55.5 131.5l26 14.2 20.5-21.5"/><path class="st22" d="M53.1 116.1l26 14.3 20.6-21.5"/><path class="st22" d="M50.7 100.8L76.8 115l20.5-21.5"/></g><linearGradient id="SVGID_6_" gradientUnits="userSpaceOnUse" x1="-829.948" y1="103.405" x2="-817.885" y2="55.608" gradientTransform="scale(-1 1) rotate(26.181 -634.466 1775.783)"><stop offset="0" stop-color="#346d4d"/><stop offset="1" stop-color="#8ac45e"/></linearGradient><path d="M35.5 166.3c-2.7-4.6-4.2-3.4-6.2-8.6-1.8-5.3-1-8.5-2.5-13.8 5.4 1 8.5 0 13.9 1.3 5.3 1.6 4.3 3.2 9.1 5.4 4.7 2.5 6.1.7 10.8 3.5 4.5 3 2.6 5 6.5 8.6 3.7 3.7 6 1.7 9.6 5.8 3.4 4.2.6 6.3 3.3 10.9 2.4 4.7 5.7 2.7 7.9 7.7 2 5.2-1.7 7.2-.5 12.6-5.4-.7-7.1 3.1-12.5 1.5-5.2-1.8-3.4-5.2-8.4-7.3-4.8-2.3-6.7.7-11.2-2.3-4.4-3.2-2.5-5.8-6.5-9.1-3.9-3.6-5.7-1.5-9.1-5.8-3-4.4-1.3-6-4.2-10.4z" fill="url(#SVGID_6_)"/><defs><path id="SVGID_7_" d="M87.5 199.7c-1.2-5.4 2.5-7.4.5-12.6-2.2-5.1-5.5-3-7.9-7.7-2.7-4.6.1-6.7-3.3-10.9-3.6-4.1-5.9-2-9.6-5.8-3.9-3.6-2-5.5-6.5-8.6-4.6-2.8-6.1-1-10.8-3.5-4.8-2.3-3.8-3.9-9.1-5.4-5.4-1.3-8.5-.3-13.9-1.3 1.4 5.3.7 8.5 2.5 13.8 2 5.2 3.5 4 6.2 8.6 2.9 4.4 1.2 6 4.4 10.4 3.4 4.2 5.2 2.2 9.1 5.8 4 3.4 2.2 5.9 6.5 9.1 4.5 3 6.4.1 11.2 2.3 4.9 2 3.1 5.5 8.4 7.3 5.2 1.6 6.8-2.2 12.3-1.5z"/></defs><clipPath id="SVGID_8_"><use xlink:href="#SVGID_7_" overflow="visible"/></clipPath><g opacity=".5" clip-path="url(#SVGID_8_)"><path class="st22" d="M24.9 142.1l64.9 59.7M58 200.7l25.7-4.5 2.4-26"/><path class="st22" d="M48 191.5l25.7-4.5 2.3-26"/><path class="st22" d="M37.9 182.2l25.8-4.4 2.3-26"/><path class="st22" d="M27.9 173l25.7-4.5 2.4-26"/><path class="st22" d="M17.9 163.8l25.7-4.5 2.3-26"/><path class="st22" d="M7.8 154.5l25.7-4.5 2.4-26"/></g><linearGradient id="SVGID_9_" gradientUnits="userSpaceOnUse" x1="1053.808" y1="3920.337" x2="1065.872" y2="3872.54" gradientTransform="scale(-1 1) rotate(-59.794 -2775.525 3055.303)"><stop offset="0" stop-color="#346d4d"/><stop offset="1" stop-color="#8ac45e"/></linearGradient><path d="M121.2 143.1c4.4-3 3.1-4.4 8.2-6.8 5.2-2.1 8.4-1.6 13.5-3.4-.6 5.4.6 8.5-.3 14-1.2 5.4-2.9 4.5-4.8 9.5-2.1 4.8-.3 6.2-2.8 11-2.7 4.7-4.8 3-8.1 7.1-3.5 3.9-1.3 6.1-5.1 10-4 3.7-6.3 1.1-10.7 4-4.5 2.8-2.3 5.9-7.2 8.5-5 2.4-7.3-1.2-12.6.4.3-5.5-3.6-6.9-2.4-12.3 1.4-5.3 5-3.8 6.7-8.8 1.9-4.9-1.2-6.6 1.6-11.3 2.9-4.6 5.6-2.9 8.6-7.2 3.3-4.1 1.1-5.8 5.1-9.4 4.3-3.7 6-2.1 10.3-5.3z" fill="url(#SVGID_9_)"/><defs><path id="SVGID_10_" d="M91.5 197.3c5.3-1.5 7.5 2 12.6-.4 4.9-2.6 2.6-5.7 7.2-8.5 4.4-3 6.7-.3 10.7-4 3.8-3.9 1.6-6.1 5.1-10 3.3-4.1 5.4-2.4 8.1-7.1 2.5-4.8.6-6.2 2.8-11 1.9-4.9 3.6-4 4.8-9.5 1-5.5-.3-8.5.3-14-5.2 1.8-8.4 1.3-13.5 3.4-5 2.4-3.8 3.8-8.2 6.8-4.2 3.2-5.9 1.6-10.1 5.1-4 3.7-1.8 5.3-5.1 9.4-3.1 4.3-5.7 2.6-8.6 7.2-2.7 4.7.4 6.4-1.6 11.3-1.7 5-5.2 3.5-6.7 8.8-1.4 5.6 2.5 7 2.2 12.5z"/></defs><clipPath id="SVGID_11_"><use xlink:href="#SVGID_10_" overflow="visible"/></clipPath><g opacity=".5" clip-path="url(#SVGID_11_)"><path class="st22" d="M144.6 130.8l-55 68.9M88.4 168l6.3 25.3 26.1.5"/><path class="st22" d="M96.9 157.3l6.3 25.4 26.1.5"/><path class="st22" d="M105.4 146.6l6.3 25.4 26.1.5"/><path class="st22" d="M113.9 136l6.3 25.3 26.1.5"/><path class="st22" d="M122.5 125.3l6.2 25.4 26.1.5"/><path class="st22" d="M131 114.7l6.2 25.3 26.2.5"/></g><g class="st27"><path class="st28" d="M246.2 320.8l-4.3-2.5V208.2l4.3 2.5zm-60.9 35.1l-4.2-2.5V240.1l4.2 2.5z"/><path class="st29" d="M185.3 242.6l-4.2-2.5 63.7-36.7 4.2 2.4z"/><path class="st11" d="M249 205.8v113.3l-2.8 1.7V210.7l-58 33.5v110.1l-2.9 1.6V242.6z"/></g><g class="st27"><path class="st28" d="M128.6 252.7l-4.2-2.5V140.1l4.2 2.5zm-60.8 35.1l-4.3-2.5V172l4.3 2.5z"/><path class="st29" d="M67.8 174.5l-4.3-2.5 63.7-36.8 4.2 2.5z"/><path class="st11" d="M131.4 137.7V251l-2.8 1.7V142.6l-58 33.5v110l-2.8 1.7V174.5z"/></g><path class="st30" d="M56.8 171.6v6.4l125.4 73.4V245z"/><path class="st14" d="M56.8 171.6L182.2 245l73.1-41-125.4-73.4z"/><path class="st15" d="M182.2 245v6.4l73.1-41V204z"/><path class="st31" d="M255.3 204v1l-73.1 41-125.4-73.4v-1L182.2 245z"/><path d="M176.7 139.8l-46-26.6c-.2-.1-.4-.1-.6-.1-.4.1-.7.2-1.1.3.2 0 .4 0 .6.1l46 26.6c.5.3.9 1.1.7 1.8l-7.5 34.2c-.1.4-.3.7-.6.8l1.1-.3c.3-.1.6-.4.6-.8l7.5-34.2c.2-.7-.2-1.5-.7-1.8z" fill="#1c2229"/><linearGradient id="SVGID_12_" gradientUnits="userSpaceOnUse" x1="143.391" y1="122.681" x2="161.058" y2="198.848"><stop offset="0" stop-color="#405078"/><stop offset="1" stop-color="#252e45"/></linearGradient><path d="M175.6 140.1l-46-26.6c-.5-.3-1.1 0-1.2.7l-7.5 34.2c-.1.7.2 1.5.7 1.8l46 26.6c.5.3 1.1 0 1.2-.7l7.5-34.2c.2-.7-.1-1.5-.7-1.8z" fill="url(#SVGID_12_)"/><path class="st1" d="M129.2 115.2l-6.8 31.2 46.1 26.6 6.8-31.2z"/><path class="st7" d="M135.1 124.3l-.2.6-4.9-2.8.2-.6z"/><path class="st4" d="M162.8 140l-.1.6-3.2-1.8.1-.7z"/><path class="st3" d="M166.9 142.3l-.1.6-3.2-1.8.1-.6z"/><path class="st10" d="M139.2 137.5l-.2.7-9.5-5.4.2-.6z"/><path class="st7" d="M143.9 140.2l-.1.6-3.9-2.2.1-.6zm-11-3.3l-.2.6-3.9-2.2.2-.6z"/><path class="st3" d="M130.1 147.3l-.2.6-3.9-2.2.2-.6z"/><path class="st4" d="M130.8 144.7l-.2.6-3.9-2.2.2-.6z"/><path class="st7" d="M131.5 142.1l-.2.6-3.9-2.2.2-.6z"/><path class="st10" d="M132.2 139.5l-.2.6-3.9-2.2.2-.6zm5 8.8l-.1.6-3.9-2.2.1-.6z"/><path class="st5" d="M147.1 150.9l-.1.6-15.1-8.5.2-.6zm-9.5-11.3l-.1.6-3.9-2.2.2-.6z"/><path class="st10" d="M153.3 142.9l-.2.6-23-13 .2-.6zm.6-2.3l-.2.6-23-13 .2-.6zm.6-2.3l-.2.6-22.9-13 .1-.6zm4.4-.6l-.2.6-23-13 .2-.6z"/><path class="st6" d="M129.6 113.5c-.5-.3-1.1 0-1.2.7l-7.5 34.2c-.1.7.2 1.5.7 1.8l6 3.4 38.4-19.1-36.4-21z"/><g class="st27"><path d="M167.7 177l-26.9 15.6c-.5.3-1.4.3-2 0l-46-26.6c-.3-.2-.4-.4-.4-.6v1.9c0 .2.1.4.4.6l46 26.6c.5.3 1.4.3 1.9 0l26.9-15.6c.3-.2.4-.4.4-.6v-1.9c.1.3-.1.5-.3.6z" fill="#b0b2c9"/><path d="M147.3 189.8l-2.2 1.3c-.2.1-.3.3-.3.6 0 .2.1.3.3.2l2.2-1.3c.2-.1.3-.3.3-.5.1-.4-.1-.4-.3-.3z" fill="#7c80a6"/><path class="st10" d="M167.7 177l-26.9 15.6c-.5.3-1.4.3-2 0l-46-26.6c-.3-.2-.4-.4-.4-.6v.3c0 .2.1.4.4.5l46 26.6c.5.3 1.4.3 1.9 0l26.9-15.6c.3-.2.4-.4.4-.6v-.2c.1.3-.1.5-.3.6z"/><linearGradient id="SVGID_13_" gradientUnits="userSpaceOnUse" x1="174.622" y1="182.673" x2="213.932" y2="151.293" gradientTransform="translate(-59.02)"><stop offset="0" stop-color="#fff"/><stop offset="1" stop-color="#cecfdb"/></linearGradient><path d="M167.7 175.9l-46-26.6c-.5-.3-1.4-.3-2 0L92.8 165c-.5.3-.5.8 0 1.1l46 26.6c.5.3 1.4.3 2 0l26.9-15.6c.5-.4.5-.9 0-1.2z" fill="url(#SVGID_13_)"/></g><linearGradient id="SVGID_14_" gradientUnits="userSpaceOnUse" x1="166.624" y1="152.009" x2="220.646" y2="181.204" gradientTransform="translate(-59.02)"><stop offset="0" stop-color="#333e4a"/><stop offset="1" stop-color="#222931"/></linearGradient><path d="M148 175.2l1.3.8c.3.2.8.2 1.1 0l1.4-.8c.3-.2.3-.5 0-.6l-1.3-.8c-.3-.2-.8-.2-1.1 0l-1.4.8c-.3.1-.3.4 0 .6z" fill="url(#SVGID_14_)"/><linearGradient id="SVGID_15_" gradientUnits="userSpaceOnUse" x1="169.158" y1="147.318" x2="223.181" y2="176.513" gradientTransform="translate(-59.02)"><stop offset="0" stop-color="#333e4a"/><stop offset="1" stop-color="#222931"/></linearGradient><path d="M144.5 166.6l1.4.8c.3.2.8.2 1.1 0l.2-.1c.3-.2.3-.5 0-.6l-1.4-.8c-.3-.2-.8-.2-1.1 0l-.2.1c-.3.1-.3.4 0 .6z" fill="url(#SVGID_15_)"/><linearGradient id="SVGID_16_" gradientUnits="userSpaceOnUse" x1="169.112" y1="147.399" x2="223.137" y2="176.595" gradientTransform="translate(-59.02)"><stop offset="0" stop-color="#333e4a"/><stop offset="1" stop-color="#222931"/></linearGradient><path d="M147.4 168.2l1.2.7c.3.2.8.2 1.1 0l.2-.1c.3-.2.3-.4 0-.6l-1.2-.7c-.3-.2-.8-.2-1.1 0l-.2.1c-.3.2-.3.5 0 .6z" fill="url(#SVGID_16_)"/><linearGradient id="SVGID_17_" gradientUnits="userSpaceOnUse" x1="169.062" y1="147.474" x2="223.097" y2="176.676" gradientTransform="translate(-59.02)"><stop offset="0" stop-color="#333e4a"/><stop offset="1" stop-color="#222931"/></linearGradient><path d="M150.1 169.8l1.3.7c.3.2.8.2 1.1 0l.2-.1c.3-.2.3-.5 0-.6l-1.3-.7c-.3-.2-.8-.2-1.1 0l-.2.1c-.3.2-.2.5 0 .6z" fill="url(#SVGID_17_)"/><linearGradient id="SVGID_18_" gradientUnits="userSpaceOnUse" x1="168.041" y1="149.367" x2="222.075" y2="178.568" gradientTransform="translate(-59.02)"><stop offset="0" stop-color="#333e4a"/><stop offset="1" stop-color="#222931"/></linearGradient><path d="M148.1 169.2l-1.2-.7c-.3-.2-.8-.2-1.1 0l-1.2.7c-.3.2-.3.4 0 .6l1.2.7c.3.2.8.2 1.1 0l1.2-.7c.3-.1.3-.4 0-.6z" fill="url(#SVGID_18_)"/><linearGradient id="SVGID_19_" gradientUnits="userSpaceOnUse" x1="168.004" y1="149.45" x2="222.029" y2="178.647" gradientTransform="translate(-59.02)"><stop offset="0" stop-color="#333e4a"/><stop offset="1" stop-color="#222931"/></linearGradient><path d="M150.9 170.9l-1.3-.7c-.3-.2-.8-.2-1.1 0l-1.2.7c-.3.2-.3.5 0 .6l1.3.7c.3.2.8.2 1.1 0l1.2-.7c.3-.2.3-.5 0-.6z" fill="url(#SVGID_19_)"/><linearGradient id="SVGID_20_" gradientUnits="userSpaceOnUse" x1="169.026" y1="147.559" x2="223.05" y2="176.756" gradientTransform="translate(-59.02)"><stop offset="0" stop-color="#333e4a"/><stop offset="1" stop-color="#222931"/></linearGradient><path d="M153 171.5l1.3.8c.3.2.8.2 1.1 0l.2-.1c.3-.2.3-.5 0-.6l-1.3-.8c-.3-.2-.8-.2-1.1 0l-.2.1c-.3.1-.3.4 0 .6z" fill="url(#SVGID_20_)"/><linearGradient id="SVGID_21_" gradientUnits="userSpaceOnUse" x1="166.71" y1="151.847" x2="220.733" y2="181.043" gradientTransform="translate(-59.02)"><stop offset="0" stop-color="#333e4a"/><stop offset="1" stop-color="#222931"/></linearGradient><path d="M142.4 172l1.2.7c.3.2.8.2 1.1 0l1.4-.8c.3-.2.3-.4 0-.6l-1.2-.7c-.3-.2-.8-.2-1.1 0l-1.4.8c-.3.1-.3.4 0 .6z" fill="url(#SVGID_21_)"/><linearGradient id="SVGID_22_" gradientUnits="userSpaceOnUse" x1="165.413" y1="154.245" x2="219.438" y2="183.441" gradientTransform="translate(-59.02)"><stop offset="0" stop-color="#333e4a"/><stop offset="1" stop-color="#222931"/></linearGradient><path d="M137.8 172.4l1.4.8c.3.2.8.2 1.1 0l1.2-.7c.3-.2.3-.5 0-.6l-1.4-.8c-.3-.2-.8-.2-1.1 0l-1.2.7c-.3.2-.3.5 0 .6z" fill="url(#SVGID_22_)"/><linearGradient id="SVGID_23_" gradientUnits="userSpaceOnUse" x1="167.96" y1="149.532" x2="221.984" y2="178.728" gradientTransform="translate(-59.02)"><stop offset="0" stop-color="#333e4a"/><stop offset="1" stop-color="#222931"/></linearGradient><path d="M152.6 173.8l1.2-.7c.3-.2.3-.5 0-.6l-1.3-.8c-.3-.2-.8-.2-1.1 0l-1.2.7c-.3.2-.3.5 0 .6l1.3.8c.3.2.8.2 1.1 0z" fill="url(#SVGID_23_)"/><linearGradient id="SVGID_24_" gradientUnits="userSpaceOnUse" x1="168.984" y1="147.644" x2="223.005" y2="176.838" gradientTransform="translate(-59.02)"><stop offset="0" stop-color="#333e4a"/><stop offset="1" stop-color="#222931"/></linearGradient><path d="M155.8 173.1l1.4.8c.3.2.8.2 1.1 0l.2-.1c.3-.2.3-.4 0-.6l-1.4-.8c-.3-.2-.8-.2-1.1 0l-.2.1c-.3.2-.3.4 0 .6z" fill="url(#SVGID_24_)"/><linearGradient id="SVGID_25_" gradientUnits="userSpaceOnUse" x1="166.665" y1="151.927" x2="220.691" y2="181.124" gradientTransform="translate(-59.02)"><stop offset="0" stop-color="#333e4a"/><stop offset="1" stop-color="#222931"/></linearGradient><path d="M148.9 173.5c.3-.2.3-.4 0-.6l-1.3-.7c-.3-.2-.8-.2-1.1 0l-1.4.8c-.3.2-.3.4 0 .6l1.3.7c.3.2.8.2 1.1 0l1.4-.8z" fill="url(#SVGID_25_)"/><linearGradient id="SVGID_26_" gradientUnits="userSpaceOnUse" x1="165.369" y1="154.325" x2="219.395" y2="183.522" gradientTransform="translate(-59.02)"><stop offset="0" stop-color="#333e4a"/><stop offset="1" stop-color="#222931"/></linearGradient><path d="M140.7 174.1l1.2.7c.3.2.8.2 1.1 0l1.2-.7c.3-.2.3-.5 0-.6l-1.2-.7c-.3-.2-.8-.2-1.1 0l-1.2.7c-.3.2-.3.5 0 .6z" fill="url(#SVGID_26_)"/><linearGradient id="SVGID_27_" gradientUnits="userSpaceOnUse" x1="168.945" y1="147.727" x2="222.961" y2="176.919" gradientTransform="translate(-59.02)"><stop offset="0" stop-color="#333e4a"/><stop offset="1" stop-color="#222931"/></linearGradient><path d="M158.7 174.8l1.2.7c.3.2.8.2 1.1 0l.2-.1c.3-.2.3-.5 0-.6l-1.2-.7c-.3-.2-.8-.2-1.1 0l-.2.1c-.2.2-.2.4 0 .6z" fill="url(#SVGID_27_)"/><linearGradient id="SVGID_28_" gradientUnits="userSpaceOnUse" x1="164.093" y1="156.684" x2="218.12" y2="185.881" gradientTransform="translate(-59.02)"><stop offset="0" stop-color="#333e4a"/><stop offset="1" stop-color="#222931"/></linearGradient><path d="M136.1 174.8l1.4.8c.3.2.8.2 1.1 0l1.3-.7c.3-.2.3-.5 0-.6l-1.4-.8c-.3-.2-.8-.2-1.1 0l-1.3.7c-.3.1-.3.4 0 .6z" fill="url(#SVGID_28_)"/><linearGradient id="SVGID_29_" gradientUnits="userSpaceOnUse" x1="165.324" y1="154.405" x2="219.352" y2="183.603" gradientTransform="translate(-59.02)"><stop offset="0" stop-color="#333e4a"/><stop offset="1" stop-color="#222931"/></linearGradient><path d="M143.4 175.7l1.3.7c.3.2.8.2 1.1 0l1.2-.7c.3-.2.3-.4 0-.6l-1.3-.7c-.3-.2-.8-.2-1.1 0l-1.2.7c-.3.2-.3.5 0 .6z" fill="url(#SVGID_29_)"/><linearGradient id="SVGID_30_" gradientUnits="userSpaceOnUse" x1="167.892" y1="149.652" x2="221.919" y2="178.85" gradientTransform="translate(-59.02)"><stop offset="0" stop-color="#333e4a"/><stop offset="1" stop-color="#222931"/></linearGradient><path d="M158.3 177.1l1.2-.7c.3-.2.3-.5 0-.6l-4.1-2.4c-.3-.2-.8-.2-1.1 0l-1.2.7c-.3.2-.3.4 0 .6l4.1 2.4c.3.2.8.2 1.1 0z" fill="url(#SVGID_30_)"/><linearGradient id="SVGID_31_" gradientUnits="userSpaceOnUse" x1="164.052" y1="156.768" x2="218.075" y2="185.962" gradientTransform="translate(-59.02)"><stop offset="0" stop-color="#333e4a"/><stop offset="1" stop-color="#222931"/></linearGradient><path d="M139.1 176.4l1.2.7c.3.2.8.2 1.1 0l1.3-.7c.3-.2.3-.4 0-.6l-1.2-.7c-.3-.2-.8-.2-1.1 0l-1.3.7c-.3.2-.3.5 0 .6z" fill="url(#SVGID_31_)"/><linearGradient id="SVGID_32_" gradientUnits="userSpaceOnUse" x1="168.895" y1="147.807" x2="222.917" y2="177.002" gradientTransform="translate(-59.02)"><stop offset="0" stop-color="#333e4a"/><stop offset="1" stop-color="#222931"/></linearGradient><path d="M164.3 176.5l-1.5-.9c-.3-.2-.8-.2-1.1 0l-.2.1c-.3.2-.3.5 0 .6l1.5.9c.3.2.8.2 1.1 0l.2-.1c.3-.1.3-.4 0-.6z" fill="url(#SVGID_32_)"/><linearGradient id="SVGID_33_" gradientUnits="userSpaceOnUse" x1="166.565" y1="152.122" x2="220.589" y2="181.318" gradientTransform="translate(-59.02)"><stop offset="0" stop-color="#333e4a"/><stop offset="1" stop-color="#222931"/></linearGradient><path d="M155.4 178.8l1.4-.8c.3-.2.3-.4 0-.6l-3.4-2c-.3-.2-.8-.2-1.1 0l-1.4.8c-.3.2-.3.5 0 .6l3.4 2c.3.2.8.2 1.1 0z" fill="url(#SVGID_33_)"/><linearGradient id="SVGID_34_" gradientUnits="userSpaceOnUse" x1="167.816" y1="149.773" x2="221.852" y2="178.975" gradientTransform="translate(-59.02)"><stop offset="0" stop-color="#333e4a"/><stop offset="1" stop-color="#222931"/></linearGradient><path d="M162.5 177.6l-1.5-.9c-.3-.2-.8-.2-1.1 0l-1.2.7c-.3.2-.3.5 0 .6l1.5.9c.3.2.8.2 1.1 0l1.2-.7c.3-.2.3-.5 0-.6z" fill="url(#SVGID_34_)"/><linearGradient id="SVGID_35_" gradientUnits="userSpaceOnUse" x1="163.991" y1="156.888" x2="218.01" y2="186.081" gradientTransform="translate(-59.02)"><stop offset="0" stop-color="#333e4a"/><stop offset="1" stop-color="#222931"/></linearGradient><path d="M141.8 178l4 2.3c.3.2.8.2 1.1 0l1.3-.7c.3-.2.3-.4 0-.6l-4-2.3c-.3-.2-.8-.2-1.1 0l-1.3.7c-.3.2-.3.5 0 .6z" fill="url(#SVGID_35_)"/><linearGradient id="SVGID_36_" gradientUnits="userSpaceOnUse" x1="165.252" y1="154.543" x2="219.276" y2="183.739" gradientTransform="translate(-59.02)"><stop offset="0" stop-color="#333e4a"/><stop offset="1" stop-color="#222931"/></linearGradient><path d="M152.6 180.4l1.2-.7c.3-.2.3-.4 0-.6l-5.3-3c-.3-.2-.8-.2-1.1 0l-1.2.7c-.3.2-.3.5 0 .6l5.3 3c.3.2.8.2 1.1 0z" fill="url(#SVGID_36_)"/><linearGradient id="SVGID_37_" gradientUnits="userSpaceOnUse" x1="166.496" y1="152.232" x2="220.524" y2="181.43" gradientTransform="translate(-59.02)"><stop offset="0" stop-color="#333e4a"/><stop offset="1" stop-color="#222931"/></linearGradient><path d="M159.8 179.2l-1.5-.9c-.3-.2-.8-.2-1.1 0l-1.4.8c-.3.2-.3.5 0 .6l1.5.9c.3.2.8.2 1.1 0l1.4-.8c.3-.2.3-.5 0-.6z" fill="url(#SVGID_37_)"/><linearGradient id="SVGID_38_" gradientUnits="userSpaceOnUse" x1="162.655" y1="159.349" x2="216.68" y2="188.545" gradientTransform="translate(-59.02)"><stop offset="0" stop-color="#333e4a"/><stop offset="1" stop-color="#222931"/></linearGradient><path d="M145.4 180.6l-1.4-.8c-.3-.2-.8-.2-1.1 0l-1.3.7c-.3.2-.3.5 0 .6l1.4.8c.3.2.8.2 1.1 0l1.3-.7c.3-.1.3-.4 0-.6z" fill="url(#SVGID_38_)"/><linearGradient id="SVGID_39_" gradientUnits="userSpaceOnUse" x1="163.921" y1="157.006" x2="217.946" y2="186.202" gradientTransform="translate(-59.02)"><stop offset="0" stop-color="#333e4a"/><stop offset="1" stop-color="#222931"/></linearGradient><path d="M147.4 181.2l1.3.8c.3.2.8.2 1.1 0l1.3-.7c.3-.2.3-.5 0-.6l-1.3-.8c-.3-.2-.8-.2-1.1 0l-1.3.7c-.3.2-.3.5 0 .6z" fill="url(#SVGID_39_)"/><linearGradient id="SVGID_40_" gradientUnits="userSpaceOnUse" x1="165.18" y1="154.687" x2="219.199" y2="183.881" gradientTransform="translate(-59.02)"><stop offset="0" stop-color="#333e4a"/><stop offset="1" stop-color="#222931"/></linearGradient><path d="M156.9 180.8l-1.5-.9c-.3-.2-.8-.2-1.1 0l-1.2.7c-.3.2-.3.5 0 .6l1.5.9c.3.2.8.2 1.1 0l1.2-.7c.3-.1.3-.4 0-.6z" fill="url(#SVGID_40_)"/><linearGradient id="SVGID_41_" gradientUnits="userSpaceOnUse" x1="163.876" y1="157.091" x2="217.899" y2="186.287" gradientTransform="translate(-59.02)"><stop offset="0" stop-color="#333e4a"/><stop offset="1" stop-color="#222931"/></linearGradient><path d="M154.1 182.4l-1.5-.9c-.3-.2-.8-.2-1.1 0l-1.3.7c-.3.2-.3.5 0 .6l1.5.9c.3.2.8.2 1.1 0l1.3-.7c.3-.1.3-.4 0-.6z" fill="url(#SVGID_41_)"/><linearGradient id="SVGID_42_" gradientUnits="userSpaceOnUse" x1="162.568" y1="159.519" x2="216.588" y2="188.713" gradientTransform="translate(-59.02)"><stop offset="0" stop-color="#333e4a"/><stop offset="1" stop-color="#222931"/></linearGradient><path d="M151.3 184.1l-1.5-.9c-.3-.2-.8-.2-1.1 0l-1.3.7c-.3.2-.3.5 0 .6l1.5.9c.3.2.8.2 1.1 0l1.3-.7c.3-.2.3-.5 0-.6z" fill="url(#SVGID_42_)"/><linearGradient id="SVGID_43_" gradientUnits="userSpaceOnUse" x1="162.608" y1="159.43" x2="216.635" y2="188.628" gradientTransform="translate(-59.02)"><stop offset="0" stop-color="#333e4a"/><stop offset="1" stop-color="#222931"/></linearGradient><path d="M148.3 182.3l-1.3-.8c-.3-.2-.8-.2-1.1 0l-1.3.7c-.3.2-.3.5 0 .6l1.3.8c.3.2.8.2 1.1 0l1.3-.7c.3-.2.3-.4 0-.6z" fill="url(#SVGID_43_)"/><linearGradient id="SVGID_44_" gradientUnits="userSpaceOnUse" x1="162.702" y1="159.27" x2="216.722" y2="188.464" gradientTransform="translate(-59.02)"><stop offset="0" stop-color="#333e4a"/><stop offset="1" stop-color="#222931"/></linearGradient><path d="M142.4 178.9l-1.1-.6c-.3-.2-.8-.2-1.1 0l-1.2.7c-.3.2-.3.5 0 .6l1.1.6c.3.2.8.2 1.1 0l1.3-.7c.2-.1.2-.4-.1-.6z" fill="url(#SVGID_44_)"/><linearGradient id="SVGID_45_" gradientUnits="userSpaceOnUse" x1="162.748" y1="159.197" x2="216.76" y2="188.386" gradientTransform="translate(-59.02)"><stop offset="0" stop-color="#333e4a"/><stop offset="1" stop-color="#222931"/></linearGradient><path d="M139.8 177.4l-1.2-.7c-.3-.2-.8-.2-1.1 0l-1.3.7c-.3.2-.3.5 0 .6l1.2.7c.3.2.8.2 1.1 0l1.3-.7c.3-.1.3-.4 0-.6z" fill="url(#SVGID_45_)"/><linearGradient id="SVGID_46_" gradientUnits="userSpaceOnUse" x1="165.586" y1="153.927" x2="219.609" y2="183.123" gradientTransform="translate(-59.02)"><stop offset="0" stop-color="#333e4a"/><stop offset="1" stop-color="#222931"/></linearGradient><path d="M126.6 166l1.4.8c.3.2.8.2 1.1 0l1.2-.7c.3-.2.3-.5 0-.6l-1.4-.8c-.3-.2-.8-.2-1.1 0l-1.2.7c-.3.2-.3.5 0 .6z" fill="url(#SVGID_46_)"/><linearGradient id="SVGID_47_" gradientUnits="userSpaceOnUse" x1="164.442" y1="156.045" x2="218.462" y2="185.239" gradientTransform="translate(-59.02)"><stop offset="0" stop-color="#333e4a"/><stop offset="1" stop-color="#222931"/></linearGradient><path d="M113.7 161.2c-.3.2-.3.5 0 .6l1.4.8c.3.2.8.2 1.1 0l1.3-.7c.3-.2.3-.5 0-.6l-1.4-.8c-.3-.2-.8-.2-1.1 0l-1.3.7z" fill="url(#SVGID_47_)"/><linearGradient id="SVGID_48_" gradientUnits="userSpaceOnUse" x1="165.819" y1="153.496" x2="219.842" y2="182.691" gradientTransform="translate(-59.02)"><stop offset="0" stop-color="#333e4a"/><stop offset="1" stop-color="#222931"/></linearGradient><path d="M110.6 156.8l3.2 1.8c.3.2.8.2 1.1 0l1.2-.7c.3-.2.3-.5 0-.6l-3.2-1.8c-.3-.2-.8-.2-1.1 0l-1.2.7c-.3.1-.3.4 0 .6z" fill="url(#SVGID_48_)"/><linearGradient id="SVGID_49_" gradientUnits="userSpaceOnUse" x1="167.152" y1="151.031" x2="221.168" y2="180.223" gradientTransform="translate(-59.02)"><stop offset="0" stop-color="#333e4a"/><stop offset="1" stop-color="#222931"/></linearGradient><path d="M113.3 155.2l2.2 1.3c.3.2.8.2 1.1 0l1.4-.8c.3-.2.3-.5 0-.6l-2.2-1.3c-.3-.2-.8-.2-1.1 0l-1.4.8c-.3.1-.3.4 0 .6z" fill="url(#SVGID_49_)"/><linearGradient id="SVGID_50_" gradientUnits="userSpaceOnUse" x1="163.218" y1="158.309" x2="217.238" y2="187.503" gradientTransform="translate(-59.02)"><stop offset="0" stop-color="#333e4a"/><stop offset="1" stop-color="#222931"/></linearGradient><path d="M109.3 159.8l-2-1.1c-.3-.2-.8-.2-1.1 0l-1.3.7c-.3.2-.3.5 0 .6l2 1.1c.3.2.8.2 1.1 0l1.3-.7c.3-.1.3-.4 0-.6z" fill="url(#SVGID_50_)"/><linearGradient id="SVGID_51_" gradientUnits="userSpaceOnUse" x1="169.502" y1="146.677" x2="223.53" y2="175.875" gradientTransform="translate(-59.02)"><stop offset="0" stop-color="#333e4a"/><stop offset="1" stop-color="#222931"/></linearGradient><path d="M122.1 153.6l1.4.8c.3.2.8.2 1.1 0l.2-.1c.3-.2.3-.5 0-.6l-1.4-.8c-.3-.2-.8-.2-1.1 0l-.3.1c-.2.2-.2.4.1.6z" fill="url(#SVGID_51_)"/><linearGradient id="SVGID_52_" gradientUnits="userSpaceOnUse" x1="168.438" y1="148.65" x2="222.46" y2="177.844" gradientTransform="translate(-59.02)"><stop offset="0" stop-color="#333e4a"/><stop offset="1" stop-color="#222931"/></linearGradient><path d="M122.9 154.7l-1.4-.8c-.3-.2-.8-.2-1.1 0l-1.2.7c-.3.2-.3.4 0 .6l1.4.8c.3.2.8.2 1.1 0l1.2-.7c.3-.2.3-.4 0-.6z" fill="url(#SVGID_52_)"/><linearGradient id="SVGID_53_" gradientUnits="userSpaceOnUse" x1="167.097" y1="151.125" x2="221.13" y2="180.326" gradientTransform="translate(-59.02)"><stop offset="0" stop-color="#333e4a"/><stop offset="1" stop-color="#222931"/></linearGradient><path d="M118.5 155.9l-1.4.8c-.3.2-.3.5 0 .6l1.4.8c.3.2.8.2 1.1 0l1.4-.8c.3-.2.3-.5 0-.6l-1.4-.8c-.4-.1-.8-.1-1.1 0z" fill="url(#SVGID_53_)"/><linearGradient id="SVGID_54_" gradientUnits="userSpaceOnUse" x1="169.458" y1="146.758" x2="223.487" y2="175.956" gradientTransform="translate(-59.02)"><stop offset="0" stop-color="#333e4a"/><stop offset="1" stop-color="#222931"/></linearGradient><path d="M125 155.3l1.2.7c.3.2.8.2 1.1 0l.2-.1c.3-.2.3-.5 0-.6l-1.2-.7c-.3-.2-.8-.2-1.1 0l-.2.1c-.3.2-.3.4 0 .6z" fill="url(#SVGID_54_)"/><linearGradient id="SVGID_55_" gradientUnits="userSpaceOnUse" x1="169.417" y1="146.838" x2="223.44" y2="176.033" gradientTransform="translate(-59.02)"><stop offset="0" stop-color="#333e4a"/><stop offset="1" stop-color="#222931"/></linearGradient><path d="M127.7 156.9l1.3.7c.3.2.8.2 1.1 0l.2-.1c.3-.2.3-.5 0-.6l-1.3-.7c-.3-.2-.8-.2-1.1 0l-.2.1c-.3.1-.3.4 0 .6z" fill="url(#SVGID_55_)"/><linearGradient id="SVGID_56_" gradientUnits="userSpaceOnUse" x1="169.375" y1="146.919" x2="223.395" y2="176.113" gradientTransform="translate(-59.02)"><stop offset="0" stop-color="#333e4a"/><stop offset="1" stop-color="#222931"/></linearGradient><path d="M130.6 158.5l1.2.7c.3.2.8.2 1.1 0l.2-.1c.3-.2.3-.4 0-.6l-1.2-.7c-.3-.2-.8-.2-1.1 0l-.2.1c-.3.2-.3.5 0 .6z" fill="url(#SVGID_56_)"/><linearGradient id="SVGID_57_" gradientUnits="userSpaceOnUse" x1="169.327" y1="146.999" x2="223.356" y2="176.198" gradientTransform="translate(-59.02)"><stop offset="0" stop-color="#333e4a"/><stop offset="1" stop-color="#222931"/></linearGradient><path d="M133.3 160.1l1.4.8c.3.2.8.2 1.1 0l.2-.1c.3-.2.3-.5 0-.6l-1.4-.8c-.3-.2-.8-.2-1.1 0l-.2.1c-.2.2-.2.5 0 .6z" fill="url(#SVGID_57_)"/><linearGradient id="SVGID_58_" gradientUnits="userSpaceOnUse" x1="168.263" y1="148.972" x2="222.288" y2="178.168" gradientTransform="translate(-59.02)"><stop offset="0" stop-color="#333e4a"/><stop offset="1" stop-color="#222931"/></linearGradient><path d="M134.2 161.2l-1.4-.8c-.3-.2-.8-.2-1.1 0l-1.2.7c-.3.2-.3.4 0 .6l1.4.8c.3.2.8.2 1.1 0l1.2-.7c.3-.1.3-.4 0-.6z" fill="url(#SVGID_58_)"/><linearGradient id="SVGID_59_" gradientUnits="userSpaceOnUse" x1="168.305" y1="148.889" x2="222.334" y2="178.088" gradientTransform="translate(-59.02)"><stop offset="0" stop-color="#333e4a"/><stop offset="1" stop-color="#222931"/></linearGradient><path d="M131.3 159.5l-1.2-.7c-.3-.2-.8-.2-1.1 0l-1.2.7c-.3.2-.3.5 0 .6l1.2.7c.3.2.8.2 1.1 0l1.2-.7c.3-.1.3-.4 0-.6z" fill="url(#SVGID_59_)"/><linearGradient id="SVGID_60_" gradientUnits="userSpaceOnUse" x1="168.352" y1="148.811" x2="222.373" y2="178.005" gradientTransform="translate(-59.02)"><stop offset="0" stop-color="#333e4a"/><stop offset="1" stop-color="#222931"/></linearGradient><path d="M128.5 157.9l-1.3-.7c-.3-.2-.8-.2-1.1 0l-1.2.7c-.3.2-.3.5 0 .6l1.3.7c.3.2.8.2 1.1 0l1.2-.7c.3-.1.3-.4 0-.6z" fill="url(#SVGID_60_)"/><linearGradient id="SVGID_61_" gradientUnits="userSpaceOnUse" x1="168.393" y1="148.731" x2="222.419" y2="177.928" gradientTransform="translate(-59.02)"><stop offset="0" stop-color="#333e4a"/><stop offset="1" stop-color="#222931"/></linearGradient><path d="M125.7 156.3l-1.2-.7c-.3-.2-.8-.2-1.1 0l-1.2.7c-.3.2-.3.4 0 .6l1.2.7c.3.2.8.2 1.1 0l1.2-.7c.3-.2.3-.4 0-.6z" fill="url(#SVGID_61_)"/><linearGradient id="SVGID_62_" gradientUnits="userSpaceOnUse" x1="167.055" y1="151.207" x2="221.082" y2="180.404" gradientTransform="translate(-59.02)"><stop offset="0" stop-color="#333e4a"/><stop offset="1" stop-color="#222931"/></linearGradient><path d="M123.7 158.3l-1.2-.7c-.3-.2-.8-.2-1.1 0l-1.4.8c-.3.2-.3.4 0 .6l1.2.7c.3.2.8.2 1.1 0l1.4-.8c.3-.1.3-.4 0-.6z" fill="url(#SVGID_62_)"/><linearGradient id="SVGID_63_" gradientUnits="userSpaceOnUse" x1="165.759" y1="153.605" x2="219.785" y2="182.802" gradientTransform="translate(-59.02)"><stop offset="0" stop-color="#333e4a"/><stop offset="1" stop-color="#222931"/></linearGradient><path d="M115.3 158.9c-.3.2-.3.5 0 .6l1.4.8c.3.2.8.2 1.1 0l1.2-.7c.3-.2.3-.5 0-.6l-1.4-.8c-.3-.2-.8-.2-1.1 0l-1.2.7z" fill="url(#SVGID_63_)"/><linearGradient id="SVGID_64_" gradientUnits="userSpaceOnUse" x1="164.509" y1="155.919" x2="218.532" y2="185.114" gradientTransform="translate(-59.02)"><stop offset="0" stop-color="#333e4a"/><stop offset="1" stop-color="#222931"/></linearGradient><path d="M107.8 158.4l4.4 2.5c.3.2.8.2 1.1 0l1.3-.7c.3-.2.3-.4 0-.6l-4.4-2.5c-.3-.2-.8-.2-1.1 0l-1.3.7c-.3.1-.3.4 0 .6z" fill="url(#SVGID_64_)"/><linearGradient id="SVGID_65_" gradientUnits="userSpaceOnUse" x1="165.713" y1="153.684" x2="219.747" y2="182.886" gradientTransform="translate(-59.02)"><stop offset="0" stop-color="#333e4a"/><stop offset="1" stop-color="#222931"/></linearGradient><path d="M118.3 160.6c-.3.2-.3.4 0 .6l1.2.7c.3.2.8.2 1.1 0l1.2-.7c.3-.2.3-.5 0-.6l-1.2-.7c-.3-.2-.8-.2-1.1 0l-1.2.7z" fill="url(#SVGID_65_)"/><linearGradient id="SVGID_66_" gradientUnits="userSpaceOnUse" x1="166.756" y1="151.768" x2="220.775" y2="180.961" gradientTransform="translate(-59.02)"><stop offset="0" stop-color="#333e4a"/><stop offset="1" stop-color="#222931"/></linearGradient><path d="M143.3 169.7l-1.4-.8c-.3-.2-.8-.2-1.1 0l-1.4.8c-.3.2-.3.5 0 .6l1.4.8c.3.2.8.2 1.1 0l1.4-.8c.3-.2.3-.5 0-.6z" fill="url(#SVGID_66_)"/><linearGradient id="SVGID_67_" gradientUnits="userSpaceOnUse" x1="169.288" y1="147.083" x2="223.306" y2="176.276" gradientTransform="translate(-59.02)"><stop offset="0" stop-color="#333e4a"/><stop offset="1" stop-color="#222931"/></linearGradient><path d="M136.3 161.8l1.2.7c.3.2.8.2 1.1 0l.2-.1c.3-.2.3-.5 0-.6l-1.2-.7c-.3-.2-.8-.2-1.1 0l-.2.1c-.3.2-.3.5 0 .6z" fill="url(#SVGID_67_)"/><linearGradient id="SVGID_68_" gradientUnits="userSpaceOnUse" x1="169.244" y1="147.162" x2="223.264" y2="176.356" gradientTransform="translate(-59.02)"><stop offset="0" stop-color="#333e4a"/><stop offset="1" stop-color="#222931"/></linearGradient><path d="M139 163.4l1.3.7c.3.2.8.2 1.1 0l.2-.1c.3-.2.3-.5 0-.6l-1.3-.7c-.3-.2-.8-.2-1.1 0l-.2.1c-.3.2-.3.4 0 .6z" fill="url(#SVGID_68_)"/><linearGradient id="SVGID_69_" gradientUnits="userSpaceOnUse" x1="168.176" y1="149.133" x2="222.2" y2="178.329" gradientTransform="translate(-59.02)"><stop offset="0" stop-color="#333e4a"/><stop offset="1" stop-color="#222931"/></linearGradient><path d="M139.8 164.4l-1.3-.7c-.3-.2-.8-.2-1.1 0l-1.2.7c-.3.2-.3.4 0 .6l1.3.7c.3.2.8.2 1.1 0l1.2-.7c.3-.1.3-.4 0-.6z" fill="url(#SVGID_69_)"/><linearGradient id="SVGID_70_" gradientUnits="userSpaceOnUse" x1="166.836" y1="151.61" x2="220.863" y2="180.807" gradientTransform="translate(-59.02)"><stop offset="0" stop-color="#333e4a"/><stop offset="1" stop-color="#222931"/></linearGradient><path d="M137.8 166.5l-1.3-.7c-.3-.2-.8-.2-1.1 0l-1.4.8c-.3.2-.3.5 0 .6l1.3.7c.3.2.8.2 1.1 0l1.4-.8c.3-.2.3-.5 0-.6z" fill="url(#SVGID_70_)"/><linearGradient id="SVGID_71_" gradientUnits="userSpaceOnUse" x1="169.206" y1="147.243" x2="223.219" y2="176.433" gradientTransform="translate(-59.02)"><stop offset="0" stop-color="#333e4a"/><stop offset="1" stop-color="#222931"/></linearGradient><path d="M141.8 165l1.1.6c.3.2.8.2 1.1 0l.2-.1c.3-.2.3-.5 0-.6l-1.1-.6c-.3-.2-.8-.2-1.1 0l-.2.1c-.2.2-.2.5 0 .6z" fill="url(#SVGID_71_)"/><linearGradient id="SVGID_72_" gradientUnits="userSpaceOnUse" x1="168.133" y1="149.211" x2="222.159" y2="178.408" gradientTransform="translate(-59.02)"><stop offset="0" stop-color="#333e4a"/><stop offset="1" stop-color="#222931"/></linearGradient><path d="M142.4 165.9l-1.1-.6c-.3-.2-.8-.2-1.1 0l-1.2.7c-.3.2-.3.5 0 .6l1.1.6c.3.2.8.2 1.1 0l1.2-.7c.3-.1.3-.4 0-.6z" fill="url(#SVGID_72_)"/><linearGradient id="SVGID_73_" gradientUnits="userSpaceOnUse" x1="166.797" y1="151.689" x2="220.819" y2="180.883" gradientTransform="translate(-59.02)"><stop offset="0" stop-color="#333e4a"/><stop offset="1" stop-color="#222931"/></linearGradient><path d="M140.4 168l-1.1-.6c-.3-.2-.8-.2-1.1 0l-1.4.8c-.3.2-.3.5 0 .6l1.1.6c.3.2.8.2 1.1 0l1.4-.8c.3-.2.3-.5 0-.6z" fill="url(#SVGID_73_)"/><linearGradient id="SVGID_74_" gradientUnits="userSpaceOnUse" x1="167.011" y1="151.286" x2="221.04" y2="180.484" gradientTransform="translate(-59.02)"><stop offset="0" stop-color="#333e4a"/><stop offset="1" stop-color="#222931"/></linearGradient><path d="M126.5 159.9l-1.3-.7c-.3-.2-.8-.2-1.1 0l-1.4.8c-.3.2-.3.5 0 .6l1.3.7c.3.2.8.2 1.1 0l1.4-.8c.3-.1.3-.4 0-.6z" fill="url(#SVGID_74_)"/><linearGradient id="SVGID_75_" gradientUnits="userSpaceOnUse" x1="166.971" y1="151.369" x2="220.99" y2="180.562" gradientTransform="translate(-59.02)"><stop offset="0" stop-color="#333e4a"/><stop offset="1" stop-color="#222931"/></linearGradient><path d="M129.3 161.6l-1.2-.7c-.3-.2-.8-.2-1.1 0l-1.4.8c-.3.2-.3.5 0 .6l1.2.7c.3.2.8.2 1.1 0l1.4-.8c.3-.2.3-.5 0-.6z" fill="url(#SVGID_75_)"/><linearGradient id="SVGID_76_" gradientUnits="userSpaceOnUse" x1="165.672" y1="153.765" x2="219.699" y2="182.963" gradientTransform="translate(-59.02)"><stop offset="0" stop-color="#333e4a"/><stop offset="1" stop-color="#222931"/></linearGradient><path d="M121 162.8l1.3.7c.3.2.8.2 1.1 0l1.2-.7c.3-.2.3-.5 0-.6l-1.3-.7c-.3-.2-.8-.2-1.1 0l-1.2.7c-.3.1-.3.4 0 .6z" fill="url(#SVGID_76_)"/><linearGradient id="SVGID_77_" gradientUnits="userSpaceOnUse" x1="168.215" y1="149.051" x2="222.248" y2="178.252" gradientTransform="translate(-59.02)"><stop offset="0" stop-color="#333e4a"/><stop offset="1" stop-color="#222931"/></linearGradient><path d="M137 162.8l-1.2-.7c-.3-.2-.8-.2-1.1 0l-1.2.7c-.3.2-.3.4 0 .6l1.2.7c.3.2.8.2 1.1 0l1.2-.7c.3-.1.3-.4 0-.6z" fill="url(#SVGID_77_)"/><linearGradient id="SVGID_78_" gradientUnits="userSpaceOnUse" x1="164.398" y1="156.126" x2="218.421" y2="185.321" gradientTransform="translate(-59.02)"><stop offset="0" stop-color="#333e4a"/><stop offset="1" stop-color="#222931"/></linearGradient><path d="M116.6 163.5l1.2.7c.3.2.8.2 1.1 0l1.3-.7c.3-.2.3-.5 0-.6l-1.2-.7c-.3-.2-.8-.2-1.1 0l-1.3.7c-.2.2-.2.4 0 .6z" fill="url(#SVGID_78_)"/><linearGradient id="SVGID_79_" gradientUnits="userSpaceOnUse" x1="166.923" y1="151.448" x2="220.951" y2="180.646" gradientTransform="translate(-59.02)"><stop offset="0" stop-color="#333e4a"/><stop offset="1" stop-color="#222931"/></linearGradient><path d="M132.2 163.2l-1.4-.8c-.3-.2-.8-.2-1.1 0l-1.4.8c-.3.2-.3.4 0 .6l1.4.8c.3.2.8.2 1.1 0l1.4-.8c.3-.1.3-.4 0-.6z" fill="url(#SVGID_79_)"/><linearGradient id="SVGID_80_" gradientUnits="userSpaceOnUse" x1="165.63" y1="153.846" x2="219.654" y2="183.042" gradientTransform="translate(-59.02)"><stop offset="0" stop-color="#333e4a"/><stop offset="1" stop-color="#222931"/></linearGradient><path d="M123.8 164.4l1.2.7c.3.2.8.2 1.1 0l1.2-.7c.3-.2.3-.5 0-.6l-1.2-.7c-.3-.2-.8-.2-1.1 0l-1.2.7c-.3.2-.3.4 0 .6z" fill="url(#SVGID_80_)"/><linearGradient id="SVGID_81_" gradientUnits="userSpaceOnUse" x1="164.353" y1="156.206" x2="218.38" y2="185.403" gradientTransform="translate(-59.02)"><stop offset="0" stop-color="#333e4a"/><stop offset="1" stop-color="#222931"/></linearGradient><path d="M119.4 165.1l1.3.7c.3.2.8.2 1.1 0l1.3-.7c.3-.2.3-.5 0-.6l-1.3-.7c-.3-.2-.8-.2-1.1 0l-1.3.7c-.3.1-.3.4 0 .6z" fill="url(#SVGID_81_)"/><linearGradient id="SVGID_82_" gradientUnits="userSpaceOnUse" x1="163.081" y1="158.563" x2="217.103" y2="187.758" gradientTransform="translate(-59.02)"><stop offset="0" stop-color="#333e4a"/><stop offset="1" stop-color="#222931"/></linearGradient><path d="M117.8 164.7l-1.3-.7c-.3-.2-.8-.2-1.1 0l-1.3.7c-.3.2-.3.4 0 .6l1.3.7c.3.2.8.2 1.1 0l1.3-.7c.3-.1.3-.4 0-.6z" fill="url(#SVGID_82_)"/><linearGradient id="SVGID_83_" gradientUnits="userSpaceOnUse" x1="166.877" y1="151.528" x2="220.909" y2="180.728" gradientTransform="translate(-59.02)"><stop offset="0" stop-color="#333e4a"/><stop offset="1" stop-color="#222931"/></linearGradient><path d="M135 164.8l-1.2-.7c-.3-.2-.8-.2-1.1 0l-1.4.8c-.3.2-.3.5 0 .6l1.2.7c.3.2.8.2 1.1 0l1.4-.8c.3-.1.3-.4 0-.6z" fill="url(#SVGID_83_)"/><linearGradient id="SVGID_84_" gradientUnits="userSpaceOnUse" x1="164.31" y1="156.286" x2="218.337" y2="185.483" gradientTransform="translate(-59.02)"><stop offset="0" stop-color="#333e4a"/><stop offset="1" stop-color="#222931"/></linearGradient><path d="M122.2 166.7l1.2.7c.3.2.8.2 1.1 0l1.3-.7c.3-.2.3-.5 0-.6l-1.2-.7c-.3-.2-.8-.2-1.1 0l-1.3.7c-.3.2-.3.5 0 .6z" fill="url(#SVGID_84_)"/><linearGradient id="SVGID_85_" gradientUnits="userSpaceOnUse" x1="163.037" y1="158.642" x2="217.061" y2="187.839" gradientTransform="translate(-59.02)"><stop offset="0" stop-color="#333e4a"/><stop offset="1" stop-color="#222931"/></linearGradient><path d="M120.6 166.3l-1.2-.7c-.3-.2-.8-.2-1.1 0l-1.3.7c-.3.2-.3.5 0 .6l1.2.7c.3.2.8.2 1.1 0l1.3-.7c.3-.1.3-.4 0-.6z" fill="url(#SVGID_85_)"/><linearGradient id="SVGID_86_" gradientUnits="userSpaceOnUse" x1="165.54" y1="154.008" x2="219.568" y2="183.206" gradientTransform="translate(-59.02)"><stop offset="0" stop-color="#333e4a"/><stop offset="1" stop-color="#222931"/></linearGradient><path d="M129.6 167.7l1.2.7c.3.2.8.2 1.1 0l1.2-.7c.3-.2.3-.5 0-.6l-1.2-.7c-.3-.2-.8-.2-1.1 0l-1.2.7c-.3.2-.3.4 0 .6z" fill="url(#SVGID_86_)"/><linearGradient id="SVGID_87_" gradientUnits="userSpaceOnUse" x1="164.265" y1="156.366" x2="218.293" y2="185.565" gradientTransform="translate(-59.02)"><stop offset="0" stop-color="#333e4a"/><stop offset="1" stop-color="#222931"/></linearGradient><path d="M125 168.3l1.4.8c.3.2.8.2 1.1 0l1.3-.7c.3-.2.3-.4 0-.6l-1.4-.8c-.3-.2-.8-.2-1.1 0l-1.3.7c-.3.2-.3.5 0 .6z" fill="url(#SVGID_87_)"/><linearGradient id="SVGID_88_" gradientUnits="userSpaceOnUse" x1="165.499" y1="154.089" x2="219.522" y2="183.284" gradientTransform="translate(-59.02)"><stop offset="0" stop-color="#333e4a"/><stop offset="1" stop-color="#222931"/></linearGradient><path d="M132.3 169.3l1.3.7c.3.2.8.2 1.1 0l1.2-.7c.3-.2.3-.5 0-.6l-1.3-.7c-.3-.2-.8-.2-1.1 0l-1.2.7c-.3.2-.3.4 0 .6z" fill="url(#SVGID_88_)"/><linearGradient id="SVGID_89_" gradientUnits="userSpaceOnUse" x1="164.226" y1="156.451" x2="218.242" y2="185.643" gradientTransform="translate(-59.02)"><stop offset="0" stop-color="#333e4a"/><stop offset="1" stop-color="#222931"/></linearGradient><path d="M127.9 170l1.2.7c.3.2.8.2 1.1 0l1.3-.7c.3-.2.3-.5 0-.6l-1.2-.7c-.3-.2-.8-.2-1.1 0l-1.3.7c-.3.2-.3.5 0 .6z" fill="url(#SVGID_89_)"/><linearGradient id="SVGID_90_" gradientUnits="userSpaceOnUse" x1="165.453" y1="154.165" x2="219.482" y2="183.363" gradientTransform="translate(-59.02)"><stop offset="0" stop-color="#333e4a"/><stop offset="1" stop-color="#222931"/></linearGradient><path d="M135.1 170.9l1.1.6c.3.2.8.2 1.1 0l1.2-.7c.3-.2.3-.5 0-.6l-1.1-.6c-.3-.2-.8-.2-1.1 0l-1.2.7c-.3.2-.3.5 0 .6z" fill="url(#SVGID_90_)"/><linearGradient id="SVGID_91_" gradientUnits="userSpaceOnUse" x1="164.177" y1="156.527" x2="218.206" y2="185.726" gradientTransform="translate(-59.02)"><stop offset="0" stop-color="#333e4a"/><stop offset="1" stop-color="#222931"/></linearGradient><path d="M130.7 171.6l1.3.7c.3.2.8.2 1.1 0l1.3-.7c.3-.2.3-.4 0-.6l-1.3-.7c-.3-.2-.8-.2-1.1 0l-1.3.7c-.3.2-.3.4 0 .6z" fill="url(#SVGID_91_)"/><linearGradient id="SVGID_92_" gradientUnits="userSpaceOnUse" x1="164.139" y1="156.607" x2="218.161" y2="185.802" gradientTransform="translate(-59.02)"><stop offset="0" stop-color="#333e4a"/><stop offset="1" stop-color="#222931"/></linearGradient><path d="M133.5 173.2l1.1.6c.3.2.8.2 1.1 0l1.3-.7c.3-.2.3-.4 0-.6l-1.1-.6c-.3-.2-.8-.2-1.1 0l-1.3.7c-.3.2-.3.5 0 .6z" fill="url(#SVGID_92_)"/><linearGradient id="SVGID_93_" gradientUnits="userSpaceOnUse" x1="162.888" y1="158.918" x2="216.912" y2="188.114" gradientTransform="translate(-59.02)"><stop offset="0" stop-color="#333e4a"/><stop offset="1" stop-color="#222931"/></linearGradient><path d="M137 175.8l-14.9-8.6c-.3-.2-.8-.2-1.1 0l-1.3.7c-.3.2-.3.5 0 .6l14.9 8.6c.3.2.8.2 1.1 0l1.3-.7c.3-.1.3-.4 0-.6z" fill="url(#SVGID_93_)"/><linearGradient id="SVGID_94_" gradientUnits="userSpaceOnUse" x1="163.167" y1="158.401" x2="217.192" y2="187.598" gradientTransform="translate(-59.02)"><stop offset="0" stop-color="#333e4a"/><stop offset="1" stop-color="#222931"/></linearGradient><path d="M112.2 161.5l-1.4-.8c-.3-.2-.8-.2-1.1 0l-1.3.7c-.3.2-.3.5 0 .6l1.4.8c.3.2.8.2 1.1 0l1.3-.7c.3-.2.3-.4 0-.6z" fill="url(#SVGID_94_)"/><linearGradient id="SVGID_95_" gradientUnits="userSpaceOnUse" x1="163.124" y1="158.483" x2="217.148" y2="187.679" gradientTransform="translate(-59.02)"><stop offset="0" stop-color="#333e4a"/><stop offset="1" stop-color="#222931"/></linearGradient><path d="M115 163.1l-1.2-.7c-.3-.2-.8-.2-1.1 0l-1.3.7c-.3.2-.3.5 0 .6l1.2.7c.3.2.8.2 1.1 0l1.3-.7c.3-.2.3-.4 0-.6z" fill="url(#SVGID_95_)"/><linearGradient id="SVGID_96_" gradientUnits="userSpaceOnUse" x1="169.549" y1="146.592" x2="223.575" y2="175.789" gradientTransform="translate(-59.02)"><stop offset="0" stop-color="#333e4a"/><stop offset="1" stop-color="#222931"/></linearGradient><path d="M119 151.9l1.5.9c.3.2.8.2 1.1 0l.2-.1c.3-.2.3-.5 0-.6l-1.5-.9c-.3-.2-.8-.2-1.1 0l-.2.1c-.3.1-.3.4 0 .6z" fill="url(#SVGID_96_)"/><linearGradient id="SVGID_97_" gradientUnits="userSpaceOnUse" x1="168.481" y1="148.563" x2="222.519" y2="177.767" gradientTransform="translate(-59.02)"><stop offset="0" stop-color="#333e4a"/><stop offset="1" stop-color="#222931"/></linearGradient><path d="M116.2 153.5l1.5.9c.3.2.8.2 1.1 0l1.2-.7c.3-.2.3-.4 0-.6l-1.5-.9c-.3-.2-.8-.2-1.1 0l-1.2.7c-.3.1-.3.4 0 .6z" fill="url(#SVGID_97_)"/><linearGradient id="SVGID_98_" gradientUnits="userSpaceOnUse" x1="168.097" y1="149.293" x2="222.113" y2="178.484" gradientTransform="translate(-59.02)"><stop offset="0" stop-color="#333e4a"/><stop offset="1" stop-color="#222931"/></linearGradient><path d="M145.3 167.6l-1.4-.8c-.3-.2-.8-.2-1.1 0l-1.2.7c-.3.2-.3.4 0 .6l1.4.8c.3.2.8.2 1.1 0l1.2-.7c.3-.1.3-.4 0-.6z" fill="url(#SVGID_98_)"/><linearGradient id="SVGID_99_" gradientUnits="userSpaceOnUse" x1="160.443" y1="155.737" x2="189.869" y2="185.47" gradientTransform="translate(-59.02)"><stop offset="0" stop-color="#fff"/><stop offset="1" stop-color="#cecfdb"/></linearGradient><path d="M135.4 178.5l-18.5-10.7c-.2-.1-.6-.1-.8 0l-8.7 5c-.2.1-.2.3 0 .5l18.5 10.7c.2.1.6.1.8 0l8.7-5c.2-.1.2-.3 0-.5z" fill="url(#SVGID_99_)"/><path class="st123" d="M99.9 333.9s6.3 3.7 10.9 5.2c4.6 1.6 6.1 1.7 6.7 2.9.6 1.2 1.2 3.6-1.1 4.4-2.3.8-18.3 2.9-20.9 3.2-2.6.3-8.1-.7-8.2-2.8-.1-2.2 1.9-12.8 1.9-12.8l10.7-.1z"/><path class="st124" d="M99.7 332.5s6.3 3.7 10.9 5.2c4.6 1.6 6.1 1.7 6.7 2.9.6 1.2 1.2 3.6-1.1 4.4-2.3.8-18.3 2.9-20.9 3.2-2.6.3-8.1-.7-8.2-2.8-.1-2.2 1.9-12.8 1.9-12.8l10.7-.1z"/><path d="M101.6 334.8s-8.5 3.5-14.5-2.9c0 0 .4-21.1.8-45.3-9.2-15.2-23.9-28.4-32-35.2l32.4-15.7s16 25.6 18.5 46c-.3 13.3-5.2 53.1-5.2 53.1z" fill="#1e202b"/><path class="st123" d="M107.6 308.6s4.9 5.8 9 8.9 5.4 3.8 5.6 5.2-.1 4-2.6 4c-2.6 0-19.1-3.4-21.8-4-2.7-.5-7.8-3.4-7.1-5.6s6.3-12 6.3-12l10.6 3.5z"/><path class="st124" d="M107.9 307.2s4.9 5.8 9 8.9 5.4 3.8 5.6 5.2-.1 4-2.6 4c-2.6 0-19.1-3.4-21.8-4-2.7-.5-7.8-3.4-7.1-5.6s6.3-12 6.3-12l10.6 3.5z"/><path class="st126" d="M130.7 265.8s-.2 3.8-4.6 11.5c-4.4 7.7-17.1 31-17.1 31s-9.5.8-13.7-4c0 0 13.3-33.8 15.3-38.5 2.2-4.7 18.2-8.9 20.1 0z"/><g class="st27"><path class="st127" d="M51.2 243.9l-4.2-2.5 13.5 98 4.2 2.5z"/><path class="st128" d="M28.7 252l-4.2-2.5L11 368l4.3 2.5z"/><path class="st29" d="M54.9 236.9l-4.2-2.5-26.2 15.1 4.2 2.5z"/><path class="st129" d="M28.7 252L15.3 370.5l4.3-2.5 12.8-113.2 18.8-10.9 13.5 98 4.3-2.5-14.1-102.5z"/></g><g class="st27"><path class="st127" d="M101.2 327.7l-41.7-24.2.6 4.6 41.8 24.2z"/><path class="st29" d="M105.5 325.3L63.8 301l-4.3 2.5 41.7 24.2z"/><path class="st129" d="M101.2 327.7l.7 4.6 4.3-2.5-.7-4.5z"/></g><g class="st27"><path class="st128" d="M62.5 345.9l-41.7-24.2-.6 5.3 41.7 24.2z"/><path class="st29" d="M66.8 343.4l-41.7-24.2-4.3 2.5 41.7 24.2z"/><path class="st129" d="M62.5 345.9l-.6 5.3 4.3-2.5.6-5.3z"/></g><g class="st27"><path class="st127" d="M94.9 269.2l-4.2-2.4 13.5 98 4.2 2.4z"/><path class="st128" d="M72.4 277.3l-4.2-2.4-13.5 118.5 4.2 2.4z"/><path class="st29" d="M98.6 262.2l-4.2-2.4-26.2 15.1 4.2 2.4z"/><path class="st129" d="M72.4 277.3L58.9 395.8l4.3-2.5 12.9-113.2 18.8-10.9 13.5 98 4.3-2.4-14.1-102.6z"/></g><path class="st30" d="M19.7 248.4v6.4l51.2 29.8v-6.3z"/><path class="st14" d="M19.7 248.4l51.2 29.9 29.9-17-51.2-29.8z"/><path class="st15" d="M70.9 278.3v6.3l29.9-16.9v-6.4z"/><path class="st31" d="M100.8 261.3v1l-29.9 17-51.2-29.9v-1l51.2 29.9z"/><path class="st30" d="M19.7 248.4v6.4l51.2 29.8v-6.3z"/><path class="st14" d="M19.7 248.4l51.2 29.9 29.9-17-51.2-29.8z"/><path class="st15" d="M70.9 278.3v6.3l29.9-16.9v-6.4z"/><path class="st31" d="M100.8 261.3v1l-29.9 17-51.2-29.9v-1l51.2 29.9z"/><path class="st126" d="M88.3 233.9s28.3 14 34.1 17.3c5.8 3.3 8.3 7.8 8.3 15.1 0 3.9-10 3.8-19.7 1.9-2.4-.5-6-1.1-10.3-1.8l-.1-5-7.6-3.6s-12.4 4.9-21.5 3.3c-3.5-.8-6.3-1.5-7.9-2.1-7-2.8-14.3-6.6-16-13.8l40.7-11.3z"/><linearGradient id="SVGID_100_" gradientUnits="userSpaceOnUse" x1="4352.058" y1="159.983" x2="4351.306" y2="162.417" gradientTransform="matrix(-1 0 0 1 4460.434 0)"><stop offset="0" stop-color="#fdddc8"/><stop offset="1" stop-color="#f8b4a8"/></linearGradient><path d="M103.2 162.1s2.2-1.6 2.8-2c.6-.4 1.4-.8 2.1-.9.7-.1 2.9-.3 3.5-.5.6-.2 1.8-.7 2-.5.2.2.1 2-1.8 2.6-1.8.6-2.8.5-3.5.8-.7.4-3.4 2.4-3.4 2.4l-1.7-1.9z" fill-rule="evenodd" clip-rule="evenodd" fill="url(#SVGID_100_)"/><linearGradient id="SVGID_101_" gradientUnits="userSpaceOnUse" x1="4349.539" y1="161.006" x2="4348.356" y2="165.341" gradientTransform="matrix(-1 0 0 1 4460.434 0)"><stop offset="0" stop-color="#fdddc8"/><stop offset="1" stop-color="#f8b4a8"/></linearGradient><path d="M104.9 162.5s2.9-1.5 3.6-1.9c.7-.4 1.5-.7 2.3-.7.8 0 3.1-.1 3.7-.2.7-.1 2-.5 2.2-.3.2.2-.1 2.1-2.1 2.6s-3 .2-3.8.6c-.8.3-3.8 2.3-3.8 2.3l-2.1-2.4z" fill-rule="evenodd" clip-rule="evenodd" fill="url(#SVGID_101_)"/><linearGradient id="SVGID_102_" gradientUnits="userSpaceOnUse" x1="4347.678" y1="161.96" x2="4345.778" y2="167.229" gradientTransform="matrix(-1 0 0 1 4460.434 0)"><stop offset="0" stop-color="#fdddc8"/><stop offset="1" stop-color="#f8b4a8"/></linearGradient><path d="M106.5 163.9s3.2-1.4 4-1.7c.8-.4 1.7-.6 2.6-.6.8.1 3.3.2 4 .1.7-.1 2.2-.4 2.4-.2.2.2-.3 2.2-2.5 2.6-2.2.3-3.2 0-4.1.3-.9.3-4.2 2.1-4.2 2.1l-2.2-2.6z" fill-rule="evenodd" clip-rule="evenodd" fill="url(#SVGID_102_)"/><path class="st133" d="M64.1 169.2l2.3 5.9s7.3-1.9 11.4-2.6c4.1-.7 15.7-3.8 18.1-5.2 2.3-1.3 6.9-5 7.3-5.4.4-.3 1.5-1.1 2-.9 2.8 1.6 5 5.3 5.3 6.7-.7 1.3-3.2 2.8-4.6 3.8-1.4 1-4.7 1.7-6.8 1.7-2.1 0-10.6 5-17.7 8.7-7 3.7-15.2 7-18.2 8s-4.5.5-5.9-1.2c-1.4-1.7-5.1-9.2-6.6-13.8l13.4-5.7z"/><linearGradient id="SVGID_103_" gradientUnits="userSpaceOnUse" x1="4392.974" y1="177.939" x2="4406.731" y2="176.004" gradientTransform="matrix(-1 0 0 1 4460.434 0)"><stop offset="0" stop-color="#fbd1be"/><stop offset="1" stop-color="#f8b4a8"/></linearGradient><path d="M65.7 173.2s-3.9 7.2-11 11.2c-1.5-2.9-3.1-6.6-4-9.3l13.4-5.9 1.6 4z" fill-rule="evenodd" clip-rule="evenodd" fill="url(#SVGID_103_)"/><path class="st133" d="M107.7 166.2s2.9-1.2 3.6-1.6c.7-.3 1.5-.6 2.3-.5.8.1 2.9.1 3.6.1.6-.1 1.9-.4 2.1-.2.2.2-.3 2-2.2 2.3-1.9.3-2.9 0-3.6.3-.8.2-3.8 1.9-3.8 1.9l-2-2.3z"/><linearGradient id="SVGID_104_" gradientUnits="userSpaceOnUse" x1="4349.432" y1="170.335" x2="4355.054" y2="169.545" gradientTransform="matrix(-1 0 0 1 4460.434 0)"><stop offset="0" stop-color="#fbd1be"/><stop offset="1" stop-color="#f8b4a8"/></linearGradient><path d="M110.3 168.3c-.9 1.2-3 2.4-4.3 3.3-1.4-1.4-2.5-2.9-1.3-3.4 1.9-.8 4.7-.1 5.6.1z" fill-rule="evenodd" clip-rule="evenodd" fill="url(#SVGID_104_)"/><path class="st133" d="M102.9 172.9s2.9-.3 4.7-.3c1.8 0 2.3-.2 3.1-.5s1.8-1.5 2.4-1.7c.6-.2 1.9-.6 1.8-1.1 0-.4-1.7-1.3-3.3-.7-1.6.6-2 .9-2.7.8-.7-.2-2-1.5-4-1.1-1.9.3-3.3 3.4-2 4.6zm-48.5-70.5c7.9-.3 12.3 3.3 14.5 10.7s.8 8.6 2.6 12.5c1.8 3.9 1.3 7.3-.3 11.6s-2.3 6.3-3.8 6.3-5.9-1.1-5.9-1.1l-15.9-2.3s-6.5-6-8.4-19.8c-1.9-13.5 6.8-17.4 17.2-17.9z"/><linearGradient id="SVGID_105_" gradientUnits="userSpaceOnUse" x1="4389.552" y1="160.486" x2="4413.72" y2="145.047" gradientTransform="matrix(-1 0 0 1 4460.434 0)"><stop offset="0" stop-color="#fbd1be"/><stop offset="1" stop-color="#f8b4a8"/></linearGradient><path d="M60.8 138.9s-.1 10.7 3.6 16.7 5.5 6.4 5.5 6.4-11 5.8-21.2 1.4-10.2-14.3-10.2-14.3 8.1-.6 5.7-14.6l11-1.6s1.1 2.2 4.8 3.3c.5.9.7 1.8.8 2.7z" fill-rule="evenodd" clip-rule="evenodd" fill="url(#SVGID_105_)"/><path class="st124" d="M64.4 155.7s6.9 6.2 9.4 8.1 9 6.8 9.9 16.8-.6 33.7 2.4 43.1c2.9 9.4 4.9 9.5 3.4 15-1.6 5.5-9.7 12.9-23.1 14.6s-22.2-5-23.9-16.3c-1.7-11.3-4.3-32.3-6-42.5-1.7-10.2-7.3-25.8-6.2-34.1.4-2.9 1.3-6.1 2.4-8.1 2-3.6 8.2-4.3 8.7-4.3.8 0 1.6.8 8.6 2.8 6.9 2 10.3 2.8 14.4 4.9z"/><path d="M40.8 148.1s2.9-4.3 3.4-4.4c.5 0 7.7 1.1 13.6 4 5.9 3 7.9 9.1 7.9 9.1s-14.9-5.5-24.9-8.7z" fill="#395075"/><path d="M84.9 217.6c-9.4-6.8-16-20.7-17.5-31.4l16.6 4.1c.1 8.7 0 19.6.9 27.3z" fill="#3c547d"/><linearGradient id="SVGID_106_" gradientUnits="userSpaceOnUse" x1="4327.97" y1="180.751" x2="4332.874" y2="180.062" gradientTransform="matrix(-1 0 0 1 4460.434 0)"><stop offset="0" stop-color="#fbd1be"/><stop offset="1" stop-color="#f8b4a8"/></linearGradient><path d="M125.7 185.4s.9-2.8 1.3-4.5c.4-1.7.7-2.2 1.2-2.9.5-.7 1.8-1.5 2.2-2 .3-.5 1-1.7 1.4-1.6.4.1.9 2 0 3.4-.9 1.5-1.3 1.8-1.3 2.5s1 2.3.3 4.1c-.9 1.9-4.2 2.5-5.1 1z" fill-rule="evenodd" clip-rule="evenodd" fill="url(#SVGID_106_)"/><path class="st133" d="M90.8 187.8l3.6 5.9s7.3-1.9 11.4-2.6c4.1-.7 15.7-3.8 18.1-5.2 2.3-1.3 6.3-7.5 6.7-7.8.4-.3 1.5-1.1 2-.9 2.8 1.6 5.5 7.8 5.9 9.2-.7 1.3-3.2 2.8-4.6 3.8-1.4 1-4.7 1.7-6.8 1.7-2.1 0-10.6 5-17.7 8.7-7 3.7-15.2 7-18.2 8s-4.5.5-5.9-1.2c-1.4-1.7-5.1-9.2-6.6-13.8l12.1-5.8z"/><g fill-rule="evenodd" clip-rule="evenodd"><path d="M124 189.1s.6 1.9.6 3.6l-1.9 1s-.3-2.2-1.1-3.8l2.4-.8z" fill="#cf8f5b"/><path d="M118.8 188.7c.2 1.1 1.6 1.7 3.2 1.4 1.6-.3 2.7-1.4 2.5-2.4-.2-1.1-1.6-1.7-3.2-1.4-1.5.3-2.6 1.4-2.5 2.4z" fill="#7d4a41"/><path d="M119.3 188.4c.2.9 1.3 1.4 2.6 1.2 1.3-.2 2.2-1.1 2.1-2-.2-.9-1.3-1.4-2.6-1.2-1.3.3-2.2 1.2-2.1 2z" fill="#d9c8c5"/></g><path class="st133" d="M131.8 177.4s2.8-1.4 3.5-1.8c.7-.4 1.5-.7 2.2-.7s2.9-.1 3.5-.2c.6-.1 1.9-.5 2.1-.3.2.2-.1 2-2 2.4-1.9.4-2.9.2-3.6.5-.8.3-3.6 2.1-3.6 2.1l-2.1-2z"/><path class="st133" d="M133.5 179.5s3.2-1.4 4-1.8c.8-.4 1.7-.6 2.6-.6.8.1 3.3.2 4 .1.7-.1 2.2-.4 2.4-.2.2.2-.3 2.2-2.5 2.6-2.2.3-3.2 0-4.1.3-.9.3-4.2 2.1-4.2 2.1l-2.2-2.5z"/><path class="st133" d="M135.2 182.1s3.1-1 3.9-1.3c.8-.3 1.6-.4 2.4-.3.8.1 3 .4 3.7.4.7 0 2.1-.2 2.2 0 .2.2-.5 2-2.5 2.2-2 .1-3-.3-3.8-.1-.8.2-4.1 1.6-4.1 1.6l-1.8-2.5z"/><path class="st133" d="M134.9 184.8s3-.7 3.7-.9c.7-.2 1.6-.3 2.3-.1.7.2 2.8.7 3.4.7.6 0 1.9 0 2.1.2.1.2-.6 1.9-2.5 1.8-1.9 0-2.8-.5-3.6-.4-.8.1-4 1.2-4 1.2l-1.4-2.5z"/><path class="st124" d="M78.3 167.8s5.5 7.1 8.1 11 8.8 13.3 8.8 13.3 1.4-.6 2.2-.6c1 2.6 2.5 7.7 1.9 14.9-1.5.8-4.4 2.8-6.2 3.7-1.9 1-4.7 2.2-6.1.5-1.4-1.7-4-4.1-6.1-6.8-2-2.7-11.8-8.3-13.6-18.3-1.8-9.9 5.3-23.8 11-17.7z"/><path d="M95.8 191.9s.1-.7.4-.7c.3-.1 7.6-.2 7.9-.2s1.7 1 2.5 4.8.4 6.7 0 7.1c-.4.4-7.5 4.6-7.7 4.7-.2.1-1-.3-1-.3s1.1-7.6-2.1-15.4z" fill="#7495cc"/><path d="M66.4 115.3s1.7 3.4 1 6.7c0 0-1.2-.6-2-1.6 0 0-.4 2.8-.4 3.1 0 .4-1.7 1.6-1.8 2.3s-.3 4.8-.3 4.8l-1.3.2s-1-2.9-1.5-3.6c-.5-.8-2.1-2-2.8-1.3-.7.8-1.1 5.2-.5 7.2.5 2 3.4 3.2 3.4 3.2-.1 4-1.2 5.5-1.5 5.7-.3.2-.8-1-.8-1s-5.8 2.8-8.1 2.6c-2.3-.2-7-2.1-9.4-7.2 0 0-.5 1-.7 1-.2 0-5.1-4.2-6.4-11.6-1.3-7.4 1-10.9 2.6-13.5-.1-4.1 1-8.3 6-10.2 5-1.8 9.5-2.5 11.5-4.4 2-1.9 5.2-4.8 5.8-4.5.6.2 3.3 2.4 3.3 5.8 3-1.1 6.2-4 6.5-2.7.4 1.3 2.3 7.3 0 11.2 1.8-.5 3.3-.5 3.3.1-.2.8-1.1 6.4-5.9 7.7z" fill="#6f4d50"/><path class="st145" d="M180.8 195.4l-.3-.1c.2 0 .2.1.3.1 0 .2.1.3.3.4l.3.1c-.1-.1-.3-.2-.4-.4 0 0-.1 0-.2-.1z"/><linearGradient id="SVGID_107_" gradientUnits="userSpaceOnUse" x1="4314.185" y1="199.602" x2="4314.44" y2="199.602" gradientTransform="matrix(-1 0 0 1 4482.191 0)"><stop offset="0" stop-color="#475269"/><stop offset="1" stop-color="#363e4f"/></linearGradient><path fill="url(#SVGID_107_)" d="M168 199.2l-.2-.1v.9l.2.1z"/><linearGradient id="SVGID_108_" gradientUnits="userSpaceOnUse" x1="4301.123" y1="195.249" x2="4314.557" y2="199.366" gradientTransform="matrix(-1 0 0 1 4482.191 0)"><stop offset="0" stop-color="#5b6a87"/><stop offset="1" stop-color="#2c3340"/></linearGradient><path d="M168 199.2v.9c.4-.1 7.1-2.5 7.8-2.7.1 0 .2-.1.3-.1.2-.1.5-.4.8-.6.3-.2.6-.5 1-.7.2-.1.4-.2.7-.3 1.2-.4 2.2-.5 2.5 0 .2.4.7.7 1.4.3.7-.4 1.1-1.2 1-1.3-.1-.1-4.5.2-5 .4-.5 0-10 3.9-10.5 4.1z" fill="url(#SVGID_108_)"/><path class="st148" d="M183.4 194.6l-.3-.1c-.2-.1-4.5.2-5 .4-.4.2-10 4-10.5 4.3l.3.1c.5-.2 10-4.1 10.5-4.3.5-.2 4.8-.5 5-.4z"/><path class="st145" d="M166 187l-.3-.1c.1 0 .2 0 .3.1 0 .2.1.3.3.4l.3.1c-.1-.1-.3-.2-.4-.4-.1 0-.1-.1-.2-.1z"/><linearGradient id="SVGID_109_" gradientUnits="userSpaceOnUse" x1="4329.021" y1="191.143" x2="4329.277" y2="191.143" gradientTransform="matrix(-1 0 0 1 4482.191 0)"><stop offset="0" stop-color="#475269"/><stop offset="1" stop-color="#363e4f"/></linearGradient><path fill="url(#SVGID_109_)" d="M153.2 190.8l-.3-.2v.9l.3.2z"/><linearGradient id="SVGID_110_" gradientUnits="userSpaceOnUse" x1="4315.959" y1="186.79" x2="4329.394" y2="190.906" gradientTransform="matrix(-1 0 0 1 4482.191 0)"><stop offset="0" stop-color="#5b6a87"/><stop offset="1" stop-color="#2c3340"/></linearGradient><path d="M153.2 190.8v.9c.4-.1 7.1-2.5 7.8-2.7.1 0 .2-.1.3-.1.2-.1.5-.4.8-.6s.6-.5 1-.7c.2-.1.4-.2.7-.3 1.2-.4 2.2-.5 2.5 0 .3.4.7.7 1.4.3.7-.4 1.1-1.2 1-1.3-.1-.1-4.5.2-5 .4-.5 0-10 3.9-10.5 4.1z" fill="url(#SVGID_110_)"/><path class="st148" d="M168.6 186.1l-.3-.1c-.2-.1-4.5.2-5 .4-.4.2-10 4-10.5 4.3l.3.1c.5-.2 10-4.1 10.5-4.3.4-.2 4.8-.5 5-.4z"/><g class="st27"><linearGradient id="SVGID_111_" gradientUnits="userSpaceOnUse" x1="4323.473" y1="194.948" x2="4328.381" y2="194.948" gradientTransform="matrix(-1 0 0 1 4482.191 0)"><stop offset="0" stop-color="#5b6a87"/><stop offset="1" stop-color="#2c3340"/></linearGradient><path d="M153.9 192.2c0-.1.1-.2.2-.2.1-.1.2-.1.4-.2l-.2.2c-.1.2-.2 1.2.1 2.6.3 1.1.9 2.1 2.1 2.8.2.1.5.3.8.4.6.2 1 .2 1.4 0l-.4.2c-.3.2-.8.2-1.4 0-.3-.1-.6-.2-.8-.4-1.2-.7-1.9-1.7-2.1-2.8-.3-1.4-.2-2.4-.1-2.6z" fill="url(#SVGID_111_)"/><path class="st145" d="M158.6 198.4l.4-.2c.7-.4 1-1.7 1.2-2l-.4.2c-.3.3-.5 1.5-1.2 2z"/><linearGradient id="SVGID_112_" gradientUnits="userSpaceOnUse" x1="4315.89" y1="199.378" x2="4320.987" y2="199.378" gradientTransform="matrix(-1 0 0 1 4482.191 0)"><stop offset="0" stop-color="#5b6a87"/><stop offset="1" stop-color="#2c3340"/></linearGradient><path d="M161.5 196.3l.4-.2c-.2.1-.3.4-.2 1 .1 1 .5 3 2.2 4.3.3.2.6.4.8.5.8.4 1.3.5 1.7.3-.1.1-.3.1-.4.2-.4.2-.9.1-1.7-.3-.2-.1-.5-.3-.8-.5-1.7-1.3-2.1-3.4-2.2-4.3-.1-.6 0-.8.2-1z" fill="url(#SVGID_112_)"/><path class="st145" d="M166.2 202.9c.1-.1.3-.1.4-.2.4-.3.6-.9.7-1.2.1-.5.1-1.1.3-1.2l-.4.2c-.2.1-.2.8-.3 1.2-.1.3-.3 1-.7 1.2z"/><linearGradient id="SVGID_113_" gradientUnits="userSpaceOnUse" x1="4327.674" y1="190.916" x2="4313.81" y2="199.985" gradientTransform="matrix(-1 0 0 1 4482.191 0)"><stop offset="0" stop-color="#5b6a87"/><stop offset="1" stop-color="#2c3340"/></linearGradient><path d="M153.1 190.4c.2 0 1.9.7 3.3 1.5.1 0 .1.1.2.1 1.4.8 2.4 1.8 2.8 2.1.4.3.8.7 1.2.9.4.2.8.4 1.2.5.4.1 1.4.4 2.8 1.2.1 0 .1.1.2.1 1.4.8 3 2 3.2 2.1.1.1.1.2.1.4v.9c-.1.1-.3.1-.4.2v-.9c0-.2 0-.2-.1-.4-.1-.1-1.8-1.4-3.2-2.1-.1 0-.1-.1-.2-.1-1.4-.8-2.4-1.1-2.8-1.2-.4-.1-.8-.3-1.2-.5-.4-.2-.8-.6-1.2-.9-.4-.3-1.4-1.2-2.8-2.1-.1 0-.1-.1-.2-.1-1.4-.8-3-1.5-3.2-1.5h-.1l.4-.2z" fill="url(#SVGID_113_)"/><linearGradient id="SVGID_114_" gradientUnits="userSpaceOnUse" x1="4325.181" y1="192.191" x2="4317.173" y2="203.274" gradientTransform="matrix(-1 0 0 1 4482.191 0)"><stop offset="0" stop-color="#475269"/><stop offset="1" stop-color="#363e4f"/></linearGradient><path d="M156 192.1c.1 0 .1.1.2.1 1.4.8 2.4 1.8 2.8 2.1.4.3.8.7 1.2.9.4.2.8.4 1.2.5.4.1 1.4.4 2.8 1.2.1 0 .1.1.2.1 1.4.8 3 2 3.2 2.1.1.1.1.2.1.4v.8c0 .2-.1.1-.4.1-.3-.1-.3.7-.5 1.3-.1.5-.4 1.5-1.4 1.4-.4-.1-.9-.2-1.4-.5-.7-.4-1.4-1-2-1.8-1-1.3-1.2-3.2-1.5-3.8-.1-.3-.3-.4-.4-.5-.1 0-.3-.2-.4 0-.3.3-.5 1.8-1.5 2.1-.6.1-1.3-.1-2-.5-.5-.3-1-.7-1.4-1.1-1-1-1.2-2.3-1.3-2.9-.1-.7-.1-1.4-.4-1.8-.3-.3-.4-.4-.4-.6v-.8c0-.2 0-.2.1-.2.1-.1 1.8.6 3.2 1.4zm-2 2.7c.3 1.1.9 2.1 2.1 2.8.2.1.5.3.8.4 1.7.7 2.1-.9 2.2-1.8.1-.9-.2-1.4-.6-1.8-1-.9-1.7-1.4-2.3-1.8-.5-.3-.9-.5-1.3-.6-.7-.3-.9-.1-1 .2-.1.2-.2 1.2.1 2.6m7.2 2.5c.1 1 .5 3 2.2 4.3.3.2.6.4.8.5 1.2.7 1.9.5 2.1-.3.3-1 .3-2.1.1-2.4-.1-.3-.3-.8-1-1.3-.4-.3-.8-.6-1.3-.9-.6-.4-1.4-.7-2.3-.9-.4-.1-.7.1-.6 1" fill="url(#SVGID_114_)"/></g><linearGradient id="SVGID_115_" gradientUnits="userSpaceOnUse" x1="190.39" y1="204.762" x2="176.54" y2="205.96"><stop offset="0" stop-color="#f7f7ff"/><stop offset="1" stop-color="#bebee0"/></linearGradient><path d="M178.1 206.1c-.2-1.4-.4-2.7-.5-4.1.1.8.7 1.6 1.7 2.3 2.4 1.5 6.4 1.5 9 .1 1.2-.7 1.8-1.5 1.9-2.4-.2 1.4-.3 2.7-.5 4.1-.1.8-.7 1.6-1.8 2.2-2.3 1.3-6 1.3-8.2-.1-.9-.6-1.5-1.4-1.6-2.1z" fill="url(#SVGID_115_)"/><path class="st7" d="M177.6 202c-.4-2.9-.8-5.7-1.1-8.6.1 1 .8 1.9 2.1 2.7 2.9 1.7 7.6 1.8 10.6.1 1.4-.8 2.1-1.8 2.3-2.8l-1.1 8.6c-.1.9-.8 1.7-1.9 2.4-2.5 1.4-6.5 1.4-9-.1-1.2-.7-1.8-1.5-1.9-2.3z"/><linearGradient id="SVGID_116_" gradientUnits="userSpaceOnUse" x1="189.437" y1="193.744" x2="175.587" y2="194.942"><stop offset="0" stop-color="#f7f7ff"/><stop offset="1" stop-color="#bebee0"/></linearGradient><path d="M176.4 193.4c-.1-.5-.1-1.1-.2-1.6.1 1 .8 2 2.1 2.7 2.9 1.8 7.8 1.8 10.9.1 1.4-.8 2.2-1.8 2.3-2.9-.1.5-.1 1.1-.2 1.6-.1 1-.9 2-2.3 2.8-3 1.7-7.7 1.6-10.6-.1-1.2-.7-1.8-1.7-2-2.6z" fill="url(#SVGID_116_)"/><linearGradient id="SVGID_117_" gradientUnits="userSpaceOnUse" x1="175.176" y1="188.248" x2="192.552" y2="188.248"><stop offset="0" stop-color="#475269"/><stop offset="1" stop-color="#363e4f"/></linearGradient><path d="M190.1 184.8c3.3 2 3.2 5.2-.3 7.1-3.5 1.9-9 1.9-12.3-.1-3.3-2-3.2-5.2.3-7.1 3.5-2 9-1.9 12.3.1z" fill="url(#SVGID_117_)"/><linearGradient id="SVGID_118_" gradientUnits="userSpaceOnUse" x1="185.344" y1="185.306" x2="179.56" y2="190.317"><stop offset="0" stop-color="#475269"/><stop offset="1" stop-color="#363e4f"/></linearGradient><path d="M187.7 184.5c-2-1.2-5.4-1.2-7.5-.1-2.1 1.2-2.2 3.1-.2 4.3 2 1.2 5.4 1.2 7.5.1 2.1-1.2 2.2-3.1.2-4.3z" fill="url(#SVGID_118_)"/><path d="M185.2 186.1c-.7-.4-1.9-.4-2.6 0-.7.4-.8 1.1-.1 1.5.7.4 1.9.4 2.6 0 .8-.4.8-1.1.1-1.5z" fill="#363e4f"/><linearGradient id="SVGID_119_" gradientUnits="userSpaceOnUse" x1="187.996" y1="185.173" x2="183.658" y2="186.661"><stop offset="0" stop-color="#475269"/><stop offset="1" stop-color="#363e4f"/></linearGradient><path d="M185.5 185.7c-.9-.5-2.4-.6-3.3 0-.9.5-1 1.4-.1 1.9s2.4.6 3.3 0c1-.6 1-1.4.1-1.9zm-.4 1.9c-.7.4-1.9.4-2.6 0-.7-.4-.7-1.1.1-1.5.7-.4 1.9-.4 2.6 0 .7.4.7 1.1-.1 1.5z" fill="url(#SVGID_119_)"/><linearGradient id="SVGID_120_" gradientUnits="userSpaceOnUse" x1="189.727" y1="185.494" x2="181.192" y2="189.312"><stop offset="0" stop-color="#475269"/><stop offset="1" stop-color="#363e4f"/></linearGradient><path d="M178.2 185.9c.5-.4.9-.7 1.4-1.1-1.5 1.2-1.4 2.8.4 3.9 2 1.2 5.4 1.2 7.5.1 1.9-1.1 2.1-2.8.6-4 .5.4.9.7 1.4 1.1 2.1 1.6 1.8 3.9-.8 5.3-2.8 1.6-7.2 1.5-9.9-.1-2.4-1.5-2.5-3.7-.6-5.2z" fill="url(#SVGID_120_)"/><path class="st162" d="M187.5 188.8c-2.1 1.2-5.4 1.1-7.5-.1-1.5-.9-1.8-2.2-1.1-3.2-.8 1.1-.5 2.4 1 3.3 2.1 1.2 5.4 1.3 7.6 0 .5-.2.9-.6 1.2-1-.3.4-.7.7-1.2 1z"/><linearGradient id="SVGID_121_" gradientUnits="userSpaceOnUse" x1="175.176" y1="192.316" x2="192.554" y2="192.316"><stop offset="0" stop-color="#475269"/><stop offset="1" stop-color="#363e4f"/></linearGradient><path d="M175.2 191.4v-3.1c0 1.3.8 2.5 2.4 3.5 3.3 2 8.8 2.1 12.3.1 1.8-1 2.7-2.3 2.7-3.6v3.1c0 1.3-.9 2.7-2.7 3.6-3.5 1.9-9 1.9-12.3-.1-1.6-1-2.4-2.2-2.4-3.5z" fill="url(#SVGID_121_)"/><path class="st162" d="M189.9 191.9c-3.5 1.9-9 1.9-12.3-.1-1.6-1-2.4-2.2-2.4-3.5v.1c0 1.3.8 2.5 2.4 3.5 3.3 2 8.8 2.1 12.3.1 1.8-1 2.7-2.3 2.7-3.6v-.2c0 1.3-.9 2.7-2.7 3.7z"/><path class="st11" d="M269.6 282.1l-22.9 13.2 7.1 46.6 15.8-9.2 15.9 9.2 7.1-46.6z"/><linearGradient id="SVGID_122_" gradientUnits="userSpaceOnUse" x1="240.073" y1="346.776" x2="270.575" y2="294.941"><stop offset="0" stop-color="#f7f7ff"/><stop offset="1" stop-color="#bebee0"/></linearGradient><path fill="url(#SVGID_122_)" d="M269.8 315.1l-.1 40.4-23.6-13.6-10.6-46.6z"/><linearGradient id="SVGID_123_" gradientUnits="userSpaceOnUse" x1="267.926" y1="359.446" x2="303.758" y2="277.614"><stop offset="0" stop-color="#f7f7ff"/><stop offset="1" stop-color="#bebee0"/></linearGradient><path fill="url(#SVGID_123_)" d="M303.8 295.3l-10.6 46.6-23.5 13.6.1-40.4z"/><path class="st14" d="M244.9 336.5l1.2 5.4 23.6 13.6v-4.7z"/><path class="st15" d="M294.4 336.5l-24.7 14.3v4.7l23.5-13.6z"/><path class="st16" d="M269.8 316l33.7-19.6.3-1.1-34 19.8-34.3-19.8.3 1.1z"/><path class="st17" d="M269.5 275.6l34.2 19.8-34 19.8-34.2-19.8 34-19.8zm.2 33l22.9-13.3-23-13.3-22.9 13.3 23 13.3"/><path class="st18" d="M256.3 307.3h1c2.7-.3 4.1-1.5 5.4-2.7l-16-9.3 13.7-8c-2.3-.5-4.2.3-7-2.1-.1-.1-.2-.1-.2-.2l-17.6 10.2 20.7 12.1z"/><linearGradient id="SVGID_124_" gradientUnits="userSpaceOnUse" x1="152.158" y1="764.008" x2="165.886" y2="709.614" gradientTransform="scale(-1 1) rotate(-12.35 -2301.676 2445.523)"><stop offset="0" stop-color="#346d4d"/><stop offset="1" stop-color="#8ac45e"/></linearGradient><path d="M247.7 232.2c.9-6-1.3-6 .6-12 2.2-6 5.1-8.3 7.6-14 4.1 4.7 7.6 6 11.5 11 3.6 5.2 1.6 5.9 4.3 11.3 2.4 5.5 5 5 7.1 10.8 1.9 5.9-1.2 6.3-.3 12.2.6 5.9 4.2 5.8 4.5 12 0 6.2-4 6.1-4.8 12-1.2 5.9 3.2 6.4 1.6 12.5-1.9 6-6.6 5.2-9.3 10.8-4.3-4.5-8.5-2.3-12.2-7.5-3.4-5.3.6-7.1-2.3-12.4-2.7-5.4-6.4-4.1-8.3-10-1.6-6 1.8-6.9.6-12.8-.9-5.9-4-5.4-4-11.6.2-6.1 2.8-6.3 3.4-12.3z" fill="url(#SVGID_124_)"/><path class="st20" d="M282.9 263.4c-.2-4.7-2.4-5.8-3.7-8.7-.2.6-.4 1.3-.8 2.1-2.2 4.8-5.1 3.7-7 8.8-1.7 5.2 1.6 6.2.7 11.4-.6 5.3-4.4 4.5-4.7 10-.1 4.8 3 5.9 4.3 9.6 2.7-3.3 6.3-3.5 7.9-8.6 1.6-6.1-2.8-6.6-1.6-12.5.9-6 4.9-5.9 4.9-12.1zm-35.9-28c2.2 2.9 1.3 4.1 3.9 7.9 2.8 4.5 4.9 3.7 7.5 8.5 2.3 4.9-.3 5.6 1.2 10.7 1.3 5.1 4.4 4.5 5.4 9.8.8 5.4-2.7 5.8-2.7 11.1-.3 5.3 3.6 5.2 2.9 10.7-.1.6-.2 1.1-.4 1.6-2.4-.8-4.7-1.3-6.8-4.3-3.4-5.3.6-7.1-2.3-12.4-2.7-5.4-6.4-4.1-8.3-10-1.6-6 1.8-6.9.6-12.8-.9-5.9-4-5.4-4-11.6.4-4.8 2-6 3-9.2z"/><defs><path id="SVGID_125_" d="M270.3 298.8c2.8-5.6 7.4-4.8 9.3-10.8 1.6-6.1-2.8-6.6-1.6-12.5.9-6 4.9-5.9 4.8-12-.3-6.2-3.9-6-4.5-12-.9-5.9 2.2-6.3.3-12.2-2.1-5.8-4.7-5.3-7.1-10.8-2.7-5.4-.6-6.1-4.3-11.3-3.9-5-7.4-6.3-11.5-11-2.5 5.7-5.4 8-7.6 14-1.9 6 .3 6.1-.6 12-.6 6-3.2 6.2-3.5 12.4 0 6.2 3.1 5.7 4 11.6 1.2 5.9-2.2 6.8-.6 12.8 1.9 5.9 5.6 4.6 8.3 10 2.9 5.3-1.1 7.1 2.3 12.4 3.7 5.1 8 2.9 12.3 7.4z"/></defs><clipPath id="SVGID_126_"><use xlink:href="#SVGID_125_" overflow="visible"/></clipPath><g opacity=".5" clip-path="url(#SVGID_126_)"><path class="st22" d="M255.4 203.1l15.4 99.2m-27.5-23.5l26.1 14.3 20.5-21.5"/><path class="st22" d="M240.9 263.5l26.1 14.2 20.5-21.5"/><path class="st22" d="M238.5 248.1l26.1 14.3 20.5-21.5"/><path class="st22" d="M236.2 232.8l26 14.2 20.6-21.5"/><path class="st22" d="M233.8 217.4l26 14.3 20.6-21.5"/><path class="st22" d="M231.4 202.1l26.1 14.3 20.5-21.5"/></g><linearGradient id="SVGID_127_" gradientUnits="userSpaceOnUse" x1="-947.414" y1="274.06" x2="-935.351" y2="226.263" gradientTransform="scale(-1 1) rotate(26.181 -634.466 1775.783)"><stop offset="0" stop-color="#346d4d"/><stop offset="1" stop-color="#8ac45e"/></linearGradient><path d="M216.2 267.6c-2.7-4.6-4.2-3.4-6.2-8.6-1.8-5.3-1-8.5-2.5-13.8 5.4 1 8.5 0 13.9 1.3 5.3 1.6 4.3 3.2 9.1 5.4 4.7 2.5 6.1.7 10.8 3.5 4.5 3 2.6 5 6.5 8.6 3.7 3.7 6 1.7 9.6 5.8 3.4 4.2.6 6.3 3.3 10.9 2.4 4.7 5.7 2.7 7.9 7.7 2 5.2-1.7 7.2-.5 12.6-5.4-.7-7.1 3.1-12.5 1.5-5.2-1.8-3.4-5.2-8.4-7.3-4.8-2.3-6.7.7-11.2-2.3-4.4-3.2-2.5-5.8-6.5-9.1-3.9-3.6-5.7-1.5-9.1-5.8-3-4.3-1.3-5.9-4.2-10.4z" fill="url(#SVGID_127_)"/><defs><path id="SVGID_128_" d="M268.2 301c-1.2-5.4 2.5-7.4.5-12.6-2.2-5.1-5.5-3-7.9-7.7-2.7-4.6.1-6.7-3.3-10.9-3.6-4.1-5.9-2-9.6-5.8-3.9-3.6-2-5.5-6.5-8.6-4.6-2.8-6.1-1-10.8-3.5-4.8-2.3-3.8-3.9-9.1-5.4-5.4-1.3-8.5-.3-13.9-1.3 1.4 5.3.7 8.5 2.5 13.8 2 5.2 3.5 4 6.2 8.6 2.9 4.4 1.2 6 4.4 10.4 3.4 4.2 5.2 2.2 9.1 5.8 4 3.4 2.2 5.9 6.5 9.1 4.5 3 6.4.1 11.2 2.3 4.9 2 3.1 5.5 8.4 7.3 5.2 1.6 6.9-2.2 12.3-1.5z"/></defs><clipPath id="SVGID_129_"><use xlink:href="#SVGID_128_" overflow="visible"/></clipPath><g opacity=".5" clip-path="url(#SVGID_129_)"><path class="st22" d="M205.6 243.4l64.9 59.7m-31.8-1.1l25.7-4.4 2.4-26.1"/><path class="st22" d="M228.7 292.8l25.7-4.5 2.3-26"/><path class="st22" d="M218.6 283.6l25.8-4.5 2.3-26"/><path class="st22" d="M208.6 274.3l25.7-4.5 2.4-26"/><path class="st22" d="M198.6 265.1l25.7-4.5 2.3-26"/><path class="st22" d="M188.5 255.8l25.8-4.4 2.3-26"/></g><linearGradient id="SVGID_130_" gradientUnits="userSpaceOnUse" x1="875.326" y1="3815.141" x2="887.389" y2="3767.343" gradientTransform="scale(-1 1) rotate(-59.794 -2775.525 3055.303)"><stop offset="0" stop-color="#346d4d"/><stop offset="1" stop-color="#8ac45e"/></linearGradient><path d="M301.9 244.4c4.4-3 3.1-4.4 8.2-6.8 5.2-2.1 8.4-1.6 13.5-3.4-.6 5.4.6 8.5-.3 14-1.2 5.4-2.9 4.5-4.8 9.5-2.1 4.8-.3 6.2-2.8 11-2.7 4.7-4.8 3-8.1 7.1-3.5 3.9-1.3 6.1-5.1 10-4 3.7-6.3 1.1-10.7 4-4.5 2.8-2.3 5.9-7.2 8.5-5 2.4-7.3-1.2-12.6.4.3-5.5-3.6-6.9-2.4-12.3 1.4-5.3 5-3.8 6.7-8.8 1.9-4.9-1.2-6.6 1.6-11.3 2.9-4.6 5.6-2.9 8.6-7.2 3.3-4.1 1.1-5.8 5.1-9.4 4.3-3.7 6-2.1 10.3-5.3z" fill="url(#SVGID_130_)"/><defs><path id="SVGID_131_" d="M272.2 298.6c5.3-1.5 7.5 2 12.6-.4 4.9-2.6 2.6-5.7 7.2-8.5 4.4-3 6.7-.3 10.7-4 3.8-3.9 1.6-6.1 5.1-10 3.3-4.1 5.4-2.4 8.1-7.1 2.5-4.8.6-6.2 2.8-11 1.9-4.9 3.6-4 4.8-9.5 1-5.5-.3-8.5.3-14-5.2 1.8-8.4 1.3-13.5 3.4-5 2.4-3.8 3.8-8.2 6.8-4.2 3.2-5.9 1.6-10.1 5.1-4 3.7-1.8 5.3-5.1 9.4-3.1 4.3-5.7 2.6-8.6 7.2-2.7 4.7.4 6.4-1.6 11.3-1.7 5-5.2 3.5-6.7 8.8-1.4 5.6 2.5 7 2.2 12.5z"/></defs><clipPath id="SVGID_132_"><use xlink:href="#SVGID_131_" overflow="visible"/></clipPath><g opacity=".5" clip-path="url(#SVGID_132_)"><path class="st22" d="M325.3 232.1l-55 68.9m-1.2-31.7l6.3 25.3 26.1.5"/><path class="st22" d="M277.6 258.6l6.3 25.4 26.1.5"/><path class="st22" d="M286.1 248l6.3 25.3 26.1.5"/><path class="st22" d="M294.7 237.3l6.2 25.4 26.1.5"/><path class="st22" d="M303.2 226.6l6.2 25.4 26.1.5"/><path class="st22" d="M311.7 216l6.2 25.3 26.2.5"/></g><linearGradient id="SVGID_133_" gradientUnits="userSpaceOnUse" x1="166.251" y1="20.139" x2="170.198" y2="42.895"><stop offset="0" stop-color="#96df78"/><stop offset="1" stop-color="#76cb74"/></linearGradient><path d="M171.7 26.6l-2.4-1.4v-2.7c0-1.3-.9-2.8-2-3.5-1.1-.6-2-.1-2 1.2v2.7l-2.4-1.4c-1.1-.6-2-.1-2 1.2s.9 2.8 2 3.5l2.4 1.4v2.7c0 1.3.9 2.8 2 3.5 1.1.6 2 .1 2-1.2v-2.7l2.4 1.4c1.1.6 2 .1 2-1.1.1-1.4-.8-3-2-3.6z" fill="url(#SVGID_133_)"/><linearGradient id="SVGID_134_" gradientUnits="userSpaceOnUse" x1="765.911" y1="210.087" x2="769.857" y2="232.844" gradientTransform="translate(-760.55)"><stop offset="0" stop-color="#ffa408"/><stop offset="1" stop-color="#ffdb0d"/></linearGradient><path d="M10.9 216.5l-2.4-1.4v-2.7c0-1.3-.9-2.8-2-3.5-1.1-.6-2-.1-2 1.2v2.8L2 211.4c-1.1-.6-2-.1-2 1.2s.9 2.8 2 3.5l2.4 1.4v2.7c0 1.3.9 2.8 2 3.5 1.1.6 2 .1 2-1.2v-2.7l2.4 1.4c1.1.6 2 .1 2-1.1.1-1.4-.8-3-1.9-3.6z" fill="url(#SVGID_134_)"/><linearGradient id="SVGID_135_" gradientUnits="userSpaceOnUse" x1="3501.507" y1="235.767" x2="3494.668" y2="223.404" gradientTransform="matrix(-1 0 0 1 3787.361 0)"><stop offset="0" stop-color="#0080ff"/><stop offset="1" stop-color="#14dcff"/></linearGradient><path d="M293.2 229.4l1.7-1c.8-.5.8-1.9 0-3.3-.4-.7-.9-1.2-1.4-1.5-.5-.3-1-.4-1.4-.1l-1.7 1-1.7-2.9c-.4-.7-.9-1.2-1.4-1.5-.5-.3-1-.4-1.4-.1-.8.4-.8 1.9 0 3.3l1.7 2.9-1.7 1c-.8.4-.8 1.9 0 3.3.4.7.9 1.2 1.4 1.5.5.3 1 .4 1.4.1l1.7-1 1.7 2.9c.4.7.9 1.2 1.4 1.5.5.3 1 .4 1.4.1.8-.5.8-1.9 0-3.3l-1.7-2.9z" fill="url(#SVGID_135_)"/><path d="M34.7 83c.7.4 1.2 1.5 1.1 2.4-.1.9-.8 1.3-1.5.9s-1.2-1.5-1.1-2.4c.1-1 .8-1.3 1.5-.9zm-.3 2.3c.3.2.6 0 .7-.4.1-.4-.2-.9-.5-1.1-.3-.2-.6 0-.7.4-.1.4.2.9.5 1.1" fill="#424b60"/><path class="st176" d="M273.6 8.3c1.1.6 1.8 2.3 1.7 3.6-.2 1.4-1.2 2-2.3 1.3-1.1-.6-1.9-2.3-1.7-3.6.2-1.4 1.2-2 2.3-1.3zm-.5 4c.7.4 1.4 0 1.5-.8.1-.9-.4-1.9-1.1-2.3-.7-.4-1.4 0-1.5.8-.1.9.3 1.9 1.1 2.3"/><path d="M78.8 25c.8.4 1.2 1.1 1.6 1.7.3.6.6 1.1.9 1.6.2.3.5.5.9.8.6.3.9.3 1.3.2.4-.1.7-.4 1.3-.4.3 0 .8.1 1.3.4.2.1.3.4.3.6 0 .2-.2.3-.4.2-.6-.3-.9-.3-1.3-.2-.4.1-.7.4-1.3.4-.3 0-.8-.1-1.2-.3-.8-.5-1.3-1.1-1.6-1.7-.3-.6-.6-1.1-.9-1.6-.2-.3-.5-.5-.9-.8-.6-.3-.9-.3-1.3-.2-.4.1-.7.4-1.3.4-.3 0-.8-.1-1.2-.3-.8-.5-1.3-1.1-1.6-1.7-.3-.6-.6-1.1-.9-1.6-.2-.3-.5-.5-.9-.8-.6-.3-.9-.3-1.3-.2-.4.1-.7.4-1.3.4-.3 0-.8-.1-1.2-.3-.8-.5-1.3-1.1-1.6-1.7-.3-.6-.6-1.1-.9-1.6-.2-.3-.5-.5-.9-.8-.2-.1-.3-.4-.3-.6 0-.2.2-.3.4-.2.8.4 1.2 1.1 1.6 1.7.3.6.6 1.1.9 1.6.2.3.5.5.9.8.6.3.9.3 1.3.2.4-.1.7-.4 1.3-.4.3 0 .8.1 1.3.4.8.4 1.2 1.1 1.6 1.7.3.6.6 1.1.9 1.6.2.3.5.5.9.8.6.3.9.3 1.3.2.4-.1.7-.4 1.3-.4.1-.3.5-.2 1 .1zm219.7 303.2c.8.4 1.2 1.1 1.6 1.7.3.6.6 1.1.9 1.6.2.3.5.5.9.8.6.3.9.3 1.3.2.4-.1.7-.4 1.3-.4.3 0 .8.1 1.3.4.2.1.3.4.3.6 0 .2-.2.3-.4.2-.6-.3-.9-.3-1.3-.2-.4.1-.7.4-1.3.4-.3 0-.8-.1-1.2-.3-.8-.5-1.3-1.1-1.6-1.7-.3-.6-.6-1.1-.9-1.6-.2-.3-.5-.5-.9-.8-.6-.3-.9-.3-1.3-.2-.4.1-.7.4-1.3.4-.3 0-.8-.1-1.2-.3-.8-.5-1.3-1.1-1.6-1.7-.3-.6-.6-1.1-.9-1.6-.2-.3-.5-.5-.9-.8-.6-.3-.9-.3-1.3-.2-.4.1-.7.4-1.3.4-.3 0-.8-.1-1.2-.3-.8-.5-1.3-1.1-1.6-1.7-.3-.6-.6-1.1-.9-1.6-.2-.3-.5-.5-.9-.8-.2-.1-.3-.4-.3-.6 0-.2.2-.3.4-.2.8.4 1.2 1.1 1.6 1.7.3.6.6 1.1.9 1.6.2.3.5.5.9.8.6.3.9.3 1.3.2.4-.1.7-.4 1.3-.4.3 0 .8.1 1.3.4.8.4 1.2 1.1 1.6 1.7.3.6.6 1.1.9 1.6.2.3.5.5.9.8.6.3.9.3 1.3.2.4-.1.7-.4 1.3-.4.1-.3.5-.2 1 .1z" fill="#ffcc0c"/><path class="st5" d="M23.3 293.2c.8.4 1.2 1.1 1.6 1.7.3.6.6 1.1.9 1.6.2.3.5.5.9.8.6.3.9.3 1.3.2.4-.1.7-.4 1.3-.4.3 0 .8.1 1.3.4.2.1.3.4.3.6 0 .2-.2.3-.4.2-.6-.3-.9-.3-1.3-.2-.4.1-.7.4-1.3.4-.3 0-.8-.1-1.2-.3-.8-.5-1.3-1.1-1.6-1.7-.3-.6-.6-1.1-.9-1.6-.2-.3-.5-.5-.9-.8-.6-.3-.9-.3-1.3-.2-.4.1-.7.4-1.3.4-.3 0-.8-.1-1.2-.3-.8-.5-1.3-1.1-1.6-1.7-.3-.6-.6-1.1-.9-1.6-.2-.3-.5-.5-.9-.8-.6-.3-.9-.3-1.3-.2-.4.1-.7.4-1.3.4-.3 0-.8-.1-1.2-.3-.8-.5-1.3-1.1-1.6-1.7-.3-.6-.6-1.1-.9-1.6-.2-.3-.5-.5-.9-.8-.2-.1-.3-.4-.3-.6 0-.2.2-.3.4-.2.8.4 1.2 1.1 1.6 1.7.3.6.6 1.1.9 1.6.2.3.5.5.9.8.6.3.9.3 1.3.2.4-.1.7-.4 1.3-.4.3 0 .8.1 1.3.4.8.4 1.2 1.1 1.6 1.7.3.6.6 1.1.9 1.6.2.3.5.5.9.8.6.3.9.3 1.3.2.4-.1.7-.4 1.3-.4.1-.3.5-.2 1 .1z"/><path class="st176" d="M280.4 205.2c.2.1.4.4.3.7 0 .2-.2.3-.4.2-.6-.3-.9-.3-1.3-.2-.4.1-.7.4-1.3.4-.4 0-.8-.1-1.3-.3-.8-.4-1.2-1.1-1.6-1.7-.3-.6-.6-1.1-.9-1.6-.2-.3-.5-.5-.9-.8-.6-.3-.9-.3-1.3-.2-.4.1-.7.4-1.3.4-.4 0-.8-.1-1.3-.3-.8-.4-1.2-1.1-1.6-1.7-.3-.6-.6-1.1-.9-1.6-.2-.3-.5-.5-.9-.8-.6-.3-.9-.3-1.3-.2-.4.1-.7.4-1.3.4-.3 0-.8-.1-1.3-.3-.8-.4-1.2-1.1-1.6-1.7-.3-.6-.6-1.1-.9-1.6-.2-.3-.5-.5-.9-.8-.2-.1-.3-.4-.3-.6 0-.2.2-.3.4-.2.8.4 1.2 1.1 1.6 1.7.3.6.6 1.2.9 1.6.2.3.5.5.9.8.6.3.9.3 1.3.2.4-.1.7-.4 1.3-.4.3 0 .8.1 1.2.3.8.5 1.3 1.1 1.6 1.7.3.6.6 1.2.9 1.6.2.3.5.5.9.8.6.3.9.3 1.3.2.4-.1.7-.4 1.3-.4.3 0 .8.1 1.2.3.8.5 1.3 1.1 1.6 1.7.3.6.6 1.2.9 1.6.2.3.5.5.9.8.6.3.9.3 1.3.2.4-.1.7-.4 1.3-.4.6-.1 1-.1 1.5.2zm-83.5 105.5c.2.1.4.4.3.7 0 .2-.2.3-.4.2-.6-.3-.9-.3-1.3-.2-.4.1-.7.4-1.3.4-.4 0-.8-.1-1.3-.3-.8-.4-1.2-1.1-1.6-1.7-.3-.6-.6-1.1-.9-1.6-.2-.3-.5-.5-.9-.8-.6-.3-.9-.3-1.3-.2-.4.1-.7.4-1.3.4-.4 0-.8-.1-1.3-.3-.8-.4-1.2-1.1-1.6-1.7-.3-.6-.6-1.1-.9-1.6-.2-.3-.5-.5-.9-.8-.6-.3-.9-.3-1.3-.2-.4.1-.7.4-1.3.4-.3 0-.8-.1-1.3-.3-.8-.4-1.2-1.1-1.6-1.7-.3-.6-.6-1.1-.9-1.6-.2-.3-.5-.5-.9-.8-.2-.1-.3-.4-.3-.6 0-.2.2-.3.4-.2.8.4 1.2 1.1 1.6 1.7.3.6.6 1.2.9 1.6.2.3.5.5.9.8.6.3.9.3 1.3.2.4-.1.7-.4 1.3-.4.3 0 .8.1 1.2.3.8.5 1.3 1.1 1.6 1.7.3.6.6 1.2.9 1.6.2.3.5.5.9.8.6.3.9.3 1.3.2.4-.1.7-.4 1.3-.4.3 0 .8.1 1.2.3.8.5 1.3 1.1 1.6 1.7.3.6.6 1.2.9 1.6.2.3.5.5.9.8.6.3.9.3 1.3.2.4-.1.7-.4 1.3-.4.6-.1 1-.1 1.5.2z"/><path d="M302.5 90.5c1.5 1.5 2.3 3.8 2 5.8-.3 2.5-2.3 3.6-4.3 2.4l-12.4-7.2c-2.6-1.5-4.3-5.3-3.9-8.5.4-3.1 2.9-4.6 5.4-3.1.2.1.4.2.5.4 1.5-2.5 4.2-3.1 6.9-1.5 3.7 2.1 6.1 7.3 5.8 11.7zm-2.1 6.8c1.4.8 2.7.1 2.9-1.6.2-1.5-.5-3.3-1.7-4.2-.3-.2-.5-.6-.4-1 .5-3.8-1.6-8.3-4.6-10.1-2.4-1.4-4.8-.7-5.9 1.7-.1.3-.4.3-.6.2l-.1-.1c-.3-.2-.5-.4-.7-.5-1.9-1.1-3.8-.1-4.1 2.3-.3 2.4 1 5.2 2.9 6.3l12.3 7" fill="#ffc003"/><path class="st179" d="M64 47.4c-1.2-.7-2.3-.1-2.5 1.4-.2 1.2.4 2.7 1.2 3.5l-.2 1.6c-.1.4.2.9.5 1.1.3.2.6 0 .7-.4l.2-1.6c1 .2 1.8-.4 1.9-1.7.2-1.5-.6-3.2-1.8-3.9zm-.5 3.9c-.5-.3-.9-1.1-.8-1.8.1-.7.6-1 1.2-.7.6.3.9 1.1.8 1.8-.1.7-.7 1-1.2.7z"/><path class="st179" d="M67.4 46.2l.3-1.9c.3-1.8-.8-4-2.3-4.9l-.6-.4c-1.5-.9-2.9-.1-3.2 1.8l-.3 1.9c-1.4-.7-2.7.1-3 1.9l-.9 6.7c-.3 1.8.8 4 2.3 4.9l5.6 3.2c1.5.9 2.9.1 3.2-1.8l.9-6.7c.3-1.7-.6-3.7-2-4.7zm-4.6-4.7c.1-1 .9-1.5 1.8-1l.6.4c.8.5 1.4 1.7 1.3 2.8l-.3 1.9-3.7-2.1.3-2zm5.5 8.8l-.9 6.7c-.1 1-.9 1.5-1.8 1L60 54.8c-.8-.5-1.4-1.7-1.3-2.8l.9-6.7c.1-1 .9-1.5 1.8-1l.4.2 4.9 2.8.4.2c.8.5 1.3 1.8 1.2 2.8z"/><path d="M222.8 39.4c-.1-1.3-.8-2.6-1.8-3.2l-11.8-6.8c-1-.6-1.9-.2-2.3.7-.1.2-.2.4-.2.7l-1.4 10.1c-.2 1.5.6 3.2 1.8 3.9l11.8 6.8c1.2.7 2.3.1 2.5-1.4l1.4-10.1v-.7zM209 30.9l11.8 6.8c.3.2.5.5.7.8l-7.4 2-5.9-9.7c.2-.1.5-.1.8.1zm11.2 18.6c-.1.7-.6 1-1.1.6l-11.8-6.8c-.5-.3-.9-1.1-.8-1.8l1.3-9.3 5.8 9.5c.1.1.2.3.3.3.1.1.2.1.4.1l7.3-2-1.4 9.4z" fill="#3aa6ff"/><path class="st7" d="M346.3 167.9c4.8 2.8 8.1 8.9 7.5 13.6-.5 3.5-3 5.4-6.5 4.8-2.5 2.1-5.9.2-6.3 0-.3-.2-.5-.5-.5-.8 0-.3.1-.6.3-.7.5-.2 1-.5 1.4-.9-3.9-3.1-6.3-8.3-5.7-12.4.6-4.8 5.1-6.4 9.8-3.6zm.7 16.7c3 .6 5.2-.9 5.6-3.9.5-3.9-2.4-9.1-6.5-11.5-4.1-2.4-7.9-1.1-8.5 2.8-.5 3.6 2 8.3 5.7 10.9.2.1.3.4.4.6.1.3.1.5-.1.7-.3.4-.5.8-.9 1.1 1.1.3 2.6.4 3.8-.7.3.1.4 0 .5 0"/></g></svg>