<svg xmlns="http://www.w3.org/2000/svg" viewBox="0 0 512 512"><path d="M72.285 90c-4.355 0-6.649-5.2-3.682-8.387C115.34 31.409 181.998 0 256 0s140.66 31.409 187.397 81.613c2.967 3.187.673 8.387-3.682 8.387H72.285zm-1.843 330c-4.332 0-6.633 5.15-3.716 8.352C113.546 479.742 181.002 512 256 512s142.454-32.258 189.274-83.648c2.917-3.202.616-8.352-3.716-8.352H70.442z" fill="#82cd64"/><path d="M439.438 434.536a257.086 257.086 0 01-33.551 28.999L72.913 434.902l-.556-.571C49.022 410.305 66.242 370 99.734 370h312.163c33.592 0 50.967 40.46 27.541 64.536z" fill="#64a54b"/><path d="M512 119v151h-.39c-3.352 62.149-28.868 118.401-68.788 161H69.177C26.28 385.223 0 323.685 0 256S26.28 126.777 69.177 81H473c21.204 0 38.443 16.925 38.975 38H512z" fill="#f5f0eb"/><g fill="#dcd2cd"><path d="M512 119v1c0-.335-.017-.667-.025-1H512zm-39 40h-56.844c-3.174 0-5.545 2.919-4.894 6.025l50.871 242.755c28.737-38.96 46.703-86.345 49.477-137.78h.39V120c0 21.539-17.461 39-39 39zm-203 56c0 30.376-24.624 55-55 55s-55-24.624-55-55 24.624-55 55-55 55 24.624 55 55z"/><path d="M132 390h216a2 2 0 012 2v6a2 2 0 01-2 2H132a2 2 0 01-2-2v-6a2 2 0 012-2zm308-268v6a2 2 0 002 2h16a2 2 0 002-2v-6a2 2 0 00-2-2h-16a2 2 0 00-2 2zm-68 278h16a2 2 0 002-2v-6a2 2 0 00-2-2h-16a2 2 0 00-2 2v6a2 2 0 002 2zm-52-280h68a2 2 0 012 2v6a2 2 0 01-2 2h-68v170h68a2 2 0 012 2v6a2 2 0 01-2 2h-68v68a2 2 0 01-2 2h-6a2 2 0 01-2-2v-68H132a2 2 0 01-2-2v-6a2 2 0 012-2h48c71.797 0 130-58.203 130-130v-40H132a2 2 0 01-2-2v-6a2 2 0 012-2h188zm-10 102.042c-14.208 35.459-42.499 63.75-77.958 77.958H310v-77.958z"/></g><path d="M388 220H222a2 2 0 00-2 2v156a2 2 0 01-2 2h-6a2 2 0 01-2-2V222a2 2 0 00-2-2h-76a2 2 0 01-2-2v-6a2 2 0 012-2h76a2 2 0 002-2v-86a2 2 0 012-2h6a2 2 0 012 2v86a2 2 0 002 2h166a2 2 0 012 2v6a2 2 0 01-2 2z" fill="#b4aaaa"/><path d="M132 0a5 5 0 015 5v477.698a256.948 256.948 0 01-70-54.037V5a5 5 0 015-5h60z" fill="#ffaf37"/><path d="M137 5v477.698a256.264 256.264 0 01-27-16.42V0h22a5 5 0 015 5z" fill="#ff9b32"/><path d="M122 60h15v10h-15a2 2 0 01-2-2v-6a2 2 0 012-2zm-2 32v6a2 2 0 002 2h15V90h-15a2 2 0 00-2 2zm0 60v6a2 2 0 002 2h15v-10h-15a2 2 0 00-2 2zm0 30v6a2 2 0 002 2h15v-10h-15a2 2 0 00-2 2zM102 30a2 2 0 00-2 2v6a2 2 0 002 2h35V30h-35zm-2 92v6a2 2 0 002 2h35v-10h-35a2 2 0 00-2 2zm0 90v6a2 2 0 002 2h35v-10h-35a2 2 0 00-2 2zm20 30v6a2 2 0 002 2h15v-10h-15a2 2 0 00-2 2zm0 30v6a2 2 0 002 2h15v-10h-15a2 2 0 00-2 2zm0 60v6a2 2 0 002 2h15v-10h-15a2 2 0 00-2 2zm0 30v6a2 2 0 002 2h15v-10h-15a2 2 0 00-2 2zm-20-60v6a2 2 0 002 2h35v-10h-35a2 2 0 00-2 2zm20 120v6a2 2 0 002 2h15v-10h-15a2 2 0 00-2 2zm-20-30v6a2 2 0 002 2h35v-10h-35a2 2 0 00-2 2z" fill="#b9783d"/><path d="M230 215c0 8.284-6.716 15-15 15s-15-6.716-15-15 6.716-15 15-15 15 6.716 15 15z" fill="#736e6e"/></svg>