<svg xmlns="http://www.w3.org/2000/svg" viewBox="0 0 2500 1900"><path d="M232.1 0h2034.7c128.8 0 233 104.2 233 233v776.7c0 128.8-104.2 233-233 233h-729.7l100.2 245.3-440.5-245.3H233.1c-128.8 0-233-104.2-233-233V233C-.9 105.3 103.3 0 232.1 0z" fill="#9b5c8f"/><path d="M142.5 212.4c14.2-19.3 35.6-29.5 64-31.5 51.8-4.1 81.3 20.3 88.4 73.2 31.5 212.4 66 392.2 102.6 539.6L620 370c20.3-38.6 45.7-58.9 76.2-61 44.7-3 72.1 25.4 83.3 85.4 25.4 135.1 57.9 250 96.5 347.5 26.4-258.1 71.1-444.1 134.1-558.9 15.2-28.5 37.6-42.7 67.1-44.7 23.4-2 44.7 5.1 64 20.3 19.3 15.2 29.5 34.5 31.5 57.9 1 18.3-2 33.5-10.2 48.8-39.6 73.2-72.2 196.1-98.6 366.8-25.4 165.6-34.5 294.7-28.5 387.2 2 25.4-2 47.7-12.2 67.1-12.2 22.4-30.5 34.5-53.9 36.6-26.4 2-53.9-10.2-80.3-37.6-94.5-96.5-169.7-240.8-224.6-432.9C598.7 782.4 549.9 880 518.4 945c-60 114.8-110.8 173.8-153.4 176.8-27.4 2-50.8-21.3-71.1-70.1-51.8-133.1-107.7-390.2-167.7-771.3-4.1-26.4 2-49.7 16.3-68zm2183.7 159.5c-36.6-64-90.4-102.6-162.6-117.9-19.3-4.1-37.6-6.1-54.9-6.1-97.5 0-176.8 50.8-238.8 152.4-52.8 86.4-79.3 181.9-79.3 286.6 0 78.2 16.3 145.3 48.8 201.2 36.6 64 90.4 102.6 162.6 117.9 19.3 4.1 37.6 6.1 54.9 6.1 98.6 0 177.8-50.8 238.8-152.4 52.8-87.4 79.3-182.9 79.3-287.6 1-79.3-16.3-145.3-48.8-200.2zm-128 281.5c-14.2 67.1-39.6 116.9-77.2 150.4-29.5 26.4-56.9 37.6-82.3 32.5-24.4-5.1-44.7-26.4-60-66-12.2-31.5-18.3-63-18.3-92.5 0-25.4 2-50.8 7.1-74.2 9.1-41.7 26.4-82.3 53.9-120.9 33.5-49.8 69.1-70.1 105.7-63 24.4 5.1 44.7 26.4 60 66 12.2 31.5 18.3 63 18.3 92.5-.1 26.4-2.1 51.8-7.2 75.2zm-508.1-281.5c-36.6-64-91.5-102.6-162.6-117.9-19.3-4.1-37.6-6.1-54.9-6.1-97.5 0-176.8 50.8-238.8 152.4-52.8 86.4-79.3 181.9-79.3 286.6 0 78.2 16.3 145.3 48.8 201.2 36.6 64 90.4 102.6 162.6 117.9 19.3 4.1 37.6 6.1 54.9 6.1 98.6 0 177.8-50.8 238.8-152.4 52.8-87.4 79.3-182.9 79.3-287.6 0-79.3-16.3-145.3-48.8-200.2zM1561 653.4c-14.2 67.1-39.6 116.9-77.2 150.4-29.5 26.4-56.9 37.6-82.3 32.5-24.4-5.1-44.7-26.4-60-66-12.2-31.5-18.3-63-18.3-92.5 0-25.4 2-50.8 7.1-74.2 9.1-41.7 26.4-82.3 53.9-120.9 33.5-49.8 69.1-70.1 105.7-63 24.4 5.1 44.7 26.4 60 66 12.2 31.5 18.3 63 18.3 92.5 1 26.4-2.1 51.8-7.2 75.2z" fill="#fff"/></svg>