<svg height="60" viewBox="0 0 61 61" width="60" xmlns="http://www.w3.org/2000/svg"><g fill="none" fill-rule="evenodd"><path d="M2.996 0h54.008A2.993 2.993 0 0160 2.996v54.008A2.993 2.993 0 0157.004 60H2.996A2.993 2.993 0 010 57.004V2.996A2.993 2.993 0 012.996 0z" fill="#346DA6"/><path d="M13.626 21.017c3.082-5.731 9.263-9.479 16.39-9.479 4.614 0 8.83 1.96 12.068 4.727-.926-.178-1.936.022-2.953.602-2.381 1.362-3.16 5.215-.072 7.151 1.929 1.201 2.615 4.21 2.55 6.047-.063 1.84-4.483 10.29-4.483 10.29l-4.303-14.728s-.148-1.033-.148-1.331c0-.376.125-.836.357-1.1.16-.174.405-.541.694-.541h2.039v-1.638H24.678v1.638h.344c.363 0 .718.487 1.06.836.405.417.915 1.985 1.532 3.611l1.612 5.294-3.474 8.004-3.812-15.996s.113-1.097.344-1.283c.15-.128.38-.466.647-.466h.105v-1.638h-9.41zm2.173 2.78s-.896-1.143-1.848-1.143h-.966c-.932 2.047-1.447 4.796-1.447 7.315 0 7.58 4.663 14.08 11.304 16.85L15.8 23.797zm30.119-2.926c.35 1.66.278 3.675-.407 5.892-1.786 5.766-6.209 16.14-7.921 20.092 6.427-2.86 10.905-9.248 10.905-16.673 0-3.4-.943-6.584-2.577-9.311zM30.39 36.44l-4.725 11.506a18.707 18.707 0 008.85-.034l-4.125-11.47z" fill="#FFF"/></g></svg>