<?xml version="1.0" standalone="no"?>
<!DOCTYPE svg PUBLIC "-//W3C//DTD SVG 20010904//EN"
 "http://www.w3.org/TR/2001/REC-SVG-20010904/DTD/svg10.dtd">
<svg version="1.0" xmlns="http://www.w3.org/2000/svg"
 width="512.000000pt" height="512.000000pt" viewBox="0 0 512.000000 512.000000"
 preserveAspectRatio="xMidYMid meet">
<metadata>
Created by potrace 1.14, written by Peter Selinger 2001-2017
</metadata>
<g transform="translate(0.000000,512.000000) scale(0.100000,-0.100000)"
fill="#000000" stroke="none">
<path d="M2361 3894 c-82 -30 -133 -69 -162 -126 -38 -73 -15 -167 53 -222 67
-55 78 -68 78 -97 0 -33 -34 -69 -65 -69 -103 0 -463 40 -632 69 -57 10 -103
17 -103 16 0 -2 -7 -39 -15 -82 -36 -187 -57 -345 -75 -557 -11 -126 -11 -129
11 -152 12 -13 33 -24 47 -24 22 0 38 13 106 89 40 44 81 63 139 63 161 0 265
-249 188 -451 -65 -171 -221 -219 -327 -100 -88 99 -110 108 -152 69 -20 -19
-22 -31 -22 -118 0 -95 21 -349 41 -487 19 -139 41 -260 48 -268 18 -18 387
-71 614 -87 153 -10 180 -5 195 40 13 37 -8 77 -59 113 -132 91 -110 256 44
331 206 100 487 -3 487 -179 0 -57 -23 -98 -89 -155 -51 -45 -61 -58 -61 -86
0 -24 7 -38 27 -54 31 -24 70 -24 358 5 183 19 490 66 500 77 2 2 -5 53 -16
113 -41 237 -73 614 -56 651 13 29 51 46 79 35 13 -5 43 -32 67 -61 72 -86
147 -108 228 -69 94 45 146 151 146 294 0 143 -52 249 -146 294 -84 41 -153
19 -233 -73 -26 -30 -54 -57 -63 -59 -27 -6 -68 13 -79 37 -19 43 22 468 72
736 13 69 22 127 20 129 -2 2 -52 -6 -111 -17 -184 -36 -395 -61 -645 -77 -95
-7 -98 -6 -123 19 -39 39 -32 62 39 130 35 34 70 72 76 85 17 34 15 112 -3
148 -21 41 -80 90 -136 116 -63 28 -227 34 -290 11z"/>
</g>
</svg>
